<?xml version="1.0" encoding="utf-8"?>
<!-- Generator: Adobe Illustrator 18.0.0, SVG Export Plug-In . SVG Version: 6.00 Build 0)  -->
<!DOCTYPE svg PUBLIC "-//W3C//DTD SVG 1.1//EN" "http://www.w3.org/Graphics/SVG/1.1/DTD/svg11.dtd">
<svg version="1.1" id="文字" xmlns="http://www.w3.org/2000/svg" xmlns:xlink="http://www.w3.org/1999/xlink" x="0px" y="0px"
	 width="30px" height="30px" viewBox="0 0 30 30" style="enable-background:new 0 0 30 30;" xml:space="preserve">
<g>
	<g>
		<path style="fill:#FFFFFF;" d="M20.267,26.762H9.735c-2.362,0-4.294-1.932-4.294-4.294V7.531c0-2.361,1.932-4.293,4.293-4.293
			h10.532c2.361,0,4.294,1.932,4.294,4.294V22.47C24.559,24.83,22.628,26.762,20.267,26.762z"/>
		<path d="M22.695,27.5H7.305c-1.435,0-2.603-1.167-2.603-2.602V5.102C4.703,3.667,5.87,2.5,7.305,2.5h15.39
			c1.435,0,2.602,1.167,2.602,2.602v19.796C25.297,26.333,24.13,27.5,22.695,27.5z M7.305,3.977c-0.621,0-1.126,0.505-1.126,1.125
			v19.796c0,0.62,0.505,1.125,1.126,1.125h15.39c0.621,0,1.126-0.505,1.126-1.125V5.102c0-0.62-0.505-1.125-1.126-1.125H7.305z"/>
	</g>
	<path style="fill:#D2D2D3;" d="M21.505,9.04c0,0.376-0.305,0.683-0.681,0.683H9.176c-0.376,0-0.681-0.307-0.681-0.683V6.343
		c0-0.376,0.305-0.682,0.681-0.682h11.647c0.376,0,0.681,0.306,0.681,0.682V9.04z"/>
	<g>
		<rect x="8.494" y="11.571" width="3.082" height="3.082"/>
		<rect x="13.459" y="11.571" width="3.082" height="3.082"/>
		<rect x="18.425" y="11.571" width="3.082" height="3.082"/>
	</g>
	<g>
		<rect x="8.494" y="16.365" width="3.082" height="3.083"/>
		<rect x="13.459" y="16.365" width="3.082" height="3.083"/>
		<rect x="18.425" y="16.365" width="3.082" height="3.083"/>
	</g>
	<g>
		<rect x="8.494" y="21.16" width="3.082" height="3.082"/>
		<rect x="13.459" y="21.16" width="3.082" height="3.082"/>
		<rect x="18.425" y="21.16" width="3.082" height="3.082"/>
	</g>
</g>
</svg>
