<?xml version="1.0" encoding="utf-8"?>
<!-- Generator: Adobe Illustrator 18.0.0, SVG Export Plug-In . SVG Version: 6.00 Build 0)  -->
<!DOCTYPE svg PUBLIC "-//W3C//DTD SVG 1.1//EN" "http://www.w3.org/Graphics/SVG/1.1/DTD/svg11.dtd">
<svg version="1.1" id="文字" xmlns="http://www.w3.org/2000/svg" xmlns:xlink="http://www.w3.org/1999/xlink" x="0px" y="0px"
	 width="30px" height="30px" viewBox="0 0 30 30" style="enable-background:new 0 0 30 30;" xml:space="preserve">
<g id="お気に入りに追加_1_">
	<g>
		<path d="M14.828,24.42c-6.066-4.509-9.303-8.582-9.631-12.125v-1.18c0.264-2.822,1.999-4.009,3.114-4.118
			c0.305-0.03,0.592-0.045,0.855-0.045c1.603,0,2.272,0.491,3.597,2.069l2.066,2.462l2.066-2.462
			c1.324-1.578,1.993-2.069,3.597-2.069c0.262,0,0.55,0.015,0.854,0.045c1.115,0.109,2.85,1.296,3.114,4.118v1.18
			c-0.002,0.021-0.007,0.043-0.009,0.065l0.146,2.752h1.96c0.342-0.945,0.534-1.846,0.6-2.703v-1.41
			c-0.34-4.238-3.134-6.449-5.549-6.685c-0.397-0.039-0.768-0.058-1.117-0.058c-2.792,0-4.13,1.206-5.663,3.033
			c-1.533-1.826-2.872-3.033-5.662-3.033c-0.349,0-0.72,0.019-1.117,0.058C5.634,4.549,2.841,6.761,2.5,10.999v1.41
			c0.317,4.056,3.379,9.059,12.328,15.336c1.022-0.717,1.963-1.416,2.836-2.1v-1.823h-2.051
			C15.355,24.021,15.098,24.22,14.828,24.42z"/>
	</g>
	<g>
		<polygon style="fill:#D2D2D3;" points="23.219,18.377 23.219,14.096 19.549,14.096 19.549,18.377 15.268,18.377 15.268,22.047 
			19.549,22.047 19.549,26.328 23.219,26.328 23.219,22.047 27.5,22.047 27.5,18.377 		"/>
	</g>
</g>
</svg>
