<?xml version="1.0" encoding="utf-8"?>
<!-- Generator: Adobe Illustrator 18.0.0, SVG Export Plug-In . SVG Version: 6.00 Build 0)  -->
<!DOCTYPE svg PUBLIC "-//W3C//DTD SVG 1.1//EN" "http://www.w3.org/Graphics/SVG/1.1/DTD/svg11.dtd">
<svg version="1.1" id="文字" xmlns="http://www.w3.org/2000/svg" xmlns:xlink="http://www.w3.org/1999/xlink" x="0px" y="0px"
	 width="30px" height="30px" viewBox="0 0 30 30" style="enable-background:new 0 0 30 30;" xml:space="preserve">
<g>
	<g>
		<path style="fill:#FFFFFF;" d="M18.24,21.771H8.239c-2.141,0-3.893-1.752-3.893-3.893v-3.755c0-2.141,1.752-3.893,3.893-3.893
			H18.24c2.14,0,3.892,1.751,3.892,3.892v3.758C22.132,20.02,20.38,21.771,18.24,21.771z"/>
		<path style="fill:#231815;" d="M20.83,22.34H5.648c-1.032,0-1.871-0.839-1.871-1.871v-8.936c0-1.032,0.839-1.871,1.871-1.871
			H20.83c1.031,0,1.87,0.839,1.87,1.871v8.936C22.7,21.501,21.861,22.34,20.83,22.34z M5.648,10.799
			c-0.404,0-0.733,0.329-0.733,0.733v8.936c0,0.404,0.329,0.733,0.733,0.733H20.83c0.404,0,0.733-0.329,0.733-0.733v-8.936
			c0-0.404-0.329-0.733-0.733-0.733H5.648z"/>
	</g>
	<path d="M20.83,9.661H5.648c-1.032,0-1.871,0.839-1.871,1.871v8.936c0,1.032,0.839,1.871,1.871,1.871H20.83
		c1.031,0,1.87-0.839,1.87-1.871v-8.936C22.7,10.501,21.861,9.661,20.83,9.661z M5.648,10.799H20.83
		c0.404,0,0.733,0.329,0.733,0.733v0.501l-8.324,4.739l-8.324-4.739v-0.501C4.915,11.128,5.244,10.799,5.648,10.799z M20.83,21.202
		H5.648c-0.404,0-0.733-0.329-0.733-0.733v-7.127l8.042,4.578c0.043,0.025,0.09,0.044,0.138,0.056
		c0.048,0.013,0.096,0.019,0.144,0.019c0,0,0,0,0,0s0,0,0,0c0.048,0,0.097-0.006,0.144-0.019c0.048-0.013,0.094-0.032,0.138-0.056
		l8.041-4.578v7.127C21.563,20.873,21.234,21.202,20.83,21.202z"/>
	<path style="fill:#D2D2D3;" d="M28.629,17.186c0.018-0.029,0.033-0.058,0.048-0.088c0.011-0.023,0.023-0.045,0.033-0.069
		c0.014-0.035,0.023-0.07,0.033-0.106c0.006-0.021,0.013-0.042,0.017-0.064c0.023-0.118,0.023-0.24,0-0.358
		c-0.004-0.022-0.012-0.043-0.017-0.064c-0.009-0.036-0.019-0.071-0.033-0.106c-0.01-0.024-0.022-0.047-0.033-0.07
		c-0.015-0.03-0.029-0.059-0.047-0.087c-0.015-0.024-0.032-0.046-0.049-0.068c-0.013-0.017-0.023-0.035-0.037-0.05l-2.688-3.072
		c-0.345-0.394-0.944-0.434-1.338-0.089c-0.394,0.345-0.434,0.944-0.089,1.338l1.312,1.5h-5.578c-0.524,0-0.948,0.424-0.948,0.948
		s0.424,0.948,0.948,0.948h5.578l-1.312,1.5c-0.345,0.394-0.305,0.993,0.089,1.338c0.18,0.157,0.402,0.235,0.624,0.235
		c0.264,0,0.527-0.11,0.714-0.324l2.688-3.072c0.014-0.016,0.024-0.035,0.037-0.052C28.598,17.231,28.614,17.209,28.629,17.186z"/>
</g>
</svg>
