<?xml version="1.0" encoding="utf-8"?>
<!-- Generator: Adobe Illustrator 18.0.0, SVG Export Plug-In . SVG Version: 6.00 Build 0)  -->
<!DOCTYPE svg PUBLIC "-//W3C//DTD SVG 1.1//EN" "http://www.w3.org/Graphics/SVG/1.1/DTD/svg11.dtd">
<svg version="1.1" id="文字" xmlns="http://www.w3.org/2000/svg" xmlns:xlink="http://www.w3.org/1999/xlink" x="0px" y="0px"
	 width="30px" height="30px" viewBox="0 0 30 30" style="enable-background:new 0 0 30 30;" xml:space="preserve">
<path style="fill-rule:evenodd;clip-rule:evenodd;fill:#D2D2D3;" d="M24.474,20.516c-1.51-1.974-3.458-2.995-6.75-3.323
	c-0.594-0.12-1.042-0.646-1.042-1.271c0-0.458,1.469-1.828,1.458-1.838c1.516-1.568,2.328-4.115,2.328-6.073
	c0-3.042-2.448-5.51-5.469-5.51S9.531,4.969,9.531,8.01c0,1.969,0.792,4.531,2.323,6.099c0,0,1.464,1.354,1.464,1.813
	c0,0.661-0.5,1.214-1.146,1.292c-3.224,0.338-5.151,1.354-6.646,3.302c-0.432,0.563-0.667,1.693-0.682,2.297
	c0.005,0.156,0,2.604,0,2.604c0,1.151,0.932,2.083,2.083,2.083h16.146c1.151,0,2.083-0.932,2.083-2.083c0,0-0.005-2.448,0-2.604
	C25.141,22.208,24.906,21.078,24.474,20.516z"/>
</svg>
