<?xml version="1.0" encoding="utf-8"?>
<!-- Generator: Adobe Illustrator 18.0.0, SVG Export Plug-In . SVG Version: 6.00 Build 0)  -->
<!DOCTYPE svg PUBLIC "-//W3C//DTD SVG 1.1//EN" "http://www.w3.org/Graphics/SVG/1.1/DTD/svg11.dtd">
<svg version="1.1" id="文字" xmlns="http://www.w3.org/2000/svg" xmlns:xlink="http://www.w3.org/1999/xlink" x="0px" y="0px"
	 width="30px" height="30px" viewBox="0 0 30 30" style="enable-background:new 0 0 30 30;" xml:space="preserve">
<g>
	<path style="fill:#D2D2D3;" d="M23.733,15.477c0.122-0.307,0.122-0.647,0-0.953c-0.025-0.062-0.067-0.112-0.101-0.169
		c-0.041-0.07-0.069-0.145-0.124-0.208L19.83,9.942c-0.472-0.54-1.292-0.594-1.831-0.122c-0.539,0.471-0.594,1.291-0.122,1.83
		l1.796,2.052H4.299c-0.716,0-1.297,0.581-1.297,1.297s0.581,1.297,1.297,1.297h15.374l-1.796,2.052
		c-0.472,0.539-0.417,1.359,0.122,1.83c0.246,0.215,0.551,0.321,0.854,0.321c0.361,0,0.72-0.15,0.977-0.443l3.679-4.204
		c0.055-0.063,0.083-0.138,0.124-0.208C23.666,15.589,23.708,15.539,23.733,15.477z"/>
	<path d="M27.223,2.699H9.533c-0.43,0-0.778,0.349-0.778,0.779v6.095c0,0.43,0.348,0.779,0.778,0.779
		c0.43,0,0.778-0.349,0.778-0.779V4.256h16.133V15v10.744H10.312v-5.316c0-0.43-0.348-0.779-0.778-0.779
		c-0.43,0-0.778,0.349-0.778,0.779v6.094c0,0.43,0.348,0.779,0.778,0.779h17.69c0.43,0,0.778-0.349,0.778-0.779V15V3.478
		C28.002,3.048,27.653,2.699,27.223,2.699z"/>
</g>
</svg>
