<?xml version="1.0" encoding="utf-8"?>
<!-- Generator: Adobe Illustrator 18.0.0, SVG Export Plug-In . SVG Version: 6.00 Build 0)  -->
<!DOCTYPE svg PUBLIC "-//W3C//DTD SVG 1.1//EN" "http://www.w3.org/Graphics/SVG/1.1/DTD/svg11.dtd">
<svg version="1.1" id="文字" xmlns="http://www.w3.org/2000/svg" xmlns:xlink="http://www.w3.org/1999/xlink" x="0px" y="0px"
	 width="55px" height="55px" viewBox="0 0 55 55" style="enable-background:new 0 0 55 55;" xml:space="preserve">
<g>
	<path style="fill:#040000;" d="M53.344,5.313H36.781c-0.521,0-1.013,0.246-1.325,0.662l-4.472,5.963h-4.969l-4.472-5.963
		c-0.312-0.416-0.802-0.662-1.325-0.662H3.656C2.742,5.313,2,6.055,2,6.969v13.25c0,0.915,0.742,1.656,1.656,1.656h8.281v28.156
		c0,0.915,0.742,1.656,1.656,1.656h29.813c0.915,0,1.656-0.742,1.656-1.656V21.876h8.281c0.915,0,1.656-0.742,1.656-1.656V6.969
		C55,6.055,54.259,5.313,53.344,5.313z M51.688,18.563h-8.281c-0.914,0-1.656,0.742-1.656,1.656v28.156h-26.5V20.219
		c0-0.915-0.741-1.656-1.656-1.656H5.313V8.626h14.078l4.472,5.963c0.312,0.416,0.804,0.662,1.325,0.662h6.625
		c0.522,0,1.013-0.246,1.325-0.662l4.472-5.963h14.078V18.563z"/>
</g>
</svg>
