<?xml version="1.0" encoding="utf-8"?>
<!-- Generator: Adobe Illustrator 18.0.0, SVG Export Plug-In . SVG Version: 6.00 Build 0)  -->
<!DOCTYPE svg PUBLIC "-//W3C//DTD SVG 1.1//EN" "http://www.w3.org/Graphics/SVG/1.1/DTD/svg11.dtd">
<svg version="1.1" id="文字" xmlns="http://www.w3.org/2000/svg" xmlns:xlink="http://www.w3.org/1999/xlink" x="0px" y="0px"
	 width="55px" height="55px" viewBox="0 0 55 55" style="enable-background:new 0 0 55 55;" xml:space="preserve">
<g>
	<g>
		<path style="fill:#FFFFFF;" d="M28.501,40.667c-0.666,0-1.333-0.234-1.867-0.702l-9.186-8.039c-1.178-1.03-1.297-2.821-0.267-4
			c1.031-1.177,2.822-1.297,4-0.266l7.319,6.405l7.319-6.405c1.177-1.032,2.968-0.911,4,0.266c1.031,1.179,0.912,2.97-0.267,4
			l-9.186,8.039C29.833,40.432,29.167,40.667,28.501,40.667z"/>
		<path style="fill:#FFFFFF;" d="M28.501,40.667c-1.565,0-2.834-1.27-2.834-2.835V7.847c0-1.565,1.269-2.835,2.834-2.835
			s2.834,1.27,2.834,2.835v29.984C31.335,39.397,30.066,40.667,28.501,40.667z"/>
	</g>
	<g>
		<path d="M28.501,49.784H3.324c-0.939,0-1.701-0.762-1.701-1.701V34.526c0-0.939,0.761-1.701,1.701-1.701s1.701,0.762,1.701,1.701
			v11.855h23.476c0.939,0,1.701,0.762,1.701,1.701S29.44,49.784,28.501,49.784z"/>
		<path d="M53.677,49.784H28.501c-0.939,0-1.701-0.762-1.701-1.701s0.761-1.701,1.701-1.701h23.476V34.526
			c0-0.939,0.761-1.701,1.701-1.701s1.701,0.762,1.701,1.701v13.557C55.378,49.022,54.617,49.784,53.677,49.784z"/>
	</g>
</g>
</svg>
