<?xml version="1.0" encoding="utf-8"?>
<!-- Generator: Adobe Illustrator 18.0.0, SVG Export Plug-In . SVG Version: 6.00 Build 0)  -->
<!DOCTYPE svg PUBLIC "-//W3C//DTD SVG 1.1//EN" "http://www.w3.org/Graphics/SVG/1.1/DTD/svg11.dtd">
<svg version="1.1" id="文字" xmlns="http://www.w3.org/2000/svg" xmlns:xlink="http://www.w3.org/1999/xlink" x="0px" y="0px"
	 width="55px" height="55px" viewBox="0 0 55 55" style="enable-background:new 0 0 55 55;" xml:space="preserve">
<g>
	<path d="M37.256,31.652H9.868c-0.693,0-1.306-0.451-1.512-1.114L2.072,10.337c-0.15-0.48-0.062-1.004,0.237-1.409
		C2.606,8.523,3.08,8.283,3.583,8.283h40.406c0.874,0,1.583,0.709,1.583,1.583s-0.709,1.583-1.583,1.583H5.733l5.3,17.035h26.223
		c0.874,0,1.583,0.709,1.583,1.583S38.13,31.652,37.256,31.652z"/>
	<path d="M34.112,41.98H10.954c-0.874,0-1.583-0.709-1.583-1.583c0-0.874,0.709-1.583,1.583-1.583h22.016L44.731,3.529
		c0.216-0.646,0.821-1.083,1.502-1.083h7.184C54.291,2.446,55,3.156,55,4.03s-0.709,1.583-1.583,1.583h-6.043L35.613,40.898
		C35.398,41.544,34.793,41.98,34.112,41.98z"/>
	<g>
		<circle style="fill:#D3D3D4;" cx="10.879" cy="48.813" r="4.602"/>
		<path d="M10.88,55c-3.411,0-6.186-2.775-6.186-6.187c0-3.411,2.775-6.186,6.186-6.186c3.41,0,6.184,2.775,6.184,6.186
			C17.064,52.225,14.29,55,10.88,55z M10.88,45.795c-1.665,0-3.02,1.354-3.02,3.019c0,1.665,1.355,3.02,3.02,3.02
			c1.664,0,3.018-1.354,3.018-3.02C13.898,47.149,12.544,45.795,10.88,45.795z"/>
	</g>
	<g>
		<circle style="fill:#D3D3D4;" cx="35.348" cy="48.813" r="4.602"/>
		<path d="M35.347,55c-3.41,0-6.184-2.775-6.184-6.187c0-3.411,2.774-6.186,6.184-6.186c3.411,0,6.185,2.775,6.185,6.186
			C41.532,52.225,38.758,55,35.347,55z M35.347,45.795c-1.664,0-3.018,1.354-3.018,3.019c0,1.665,1.354,3.02,3.018,3.02
			c1.665,0,3.019-1.354,3.019-3.02C38.366,47.149,37.012,45.795,35.347,45.795z"/>
	</g>
	<path d="M40.174,21.327H7.624c-0.874,0-1.583-0.709-1.583-1.583s0.709-1.583,1.583-1.583h32.55c0.874,0,1.583,0.709,1.583,1.583
		S41.048,21.327,40.174,21.327z"/>
	<path d="M13.235,29.856c-0.874,0-1.583-0.709-1.583-1.583V10.989c0-0.874,0.709-1.583,1.583-1.583s1.583,0.709,1.583,1.583v17.284
		C14.818,29.147,14.109,29.856,13.235,29.856z"/>
	<path d="M24.011,29.856c-0.874,0-1.583-0.709-1.583-1.583V10.989c0-0.874,0.709-1.583,1.583-1.583s1.583,0.709,1.583,1.583v17.284
		C25.594,29.147,24.885,29.856,24.011,29.856z"/>
	<path d="M34.786,29.856c-0.874,0-1.583-0.709-1.583-1.583V10.989c0-0.874,0.709-1.583,1.583-1.583c0.874,0,1.583,0.709,1.583,1.583
		v17.284C36.369,29.147,35.661,29.856,34.786,29.856z"/>
</g>
</svg>
