<?xml version="1.0" encoding="utf-8"?>
<!-- Generator: Adobe Illustrator 18.0.0, SVG Export Plug-In . SVG Version: 6.00 Build 0)  -->
<!DOCTYPE svg PUBLIC "-//W3C//DTD SVG 1.1//EN" "http://www.w3.org/Graphics/SVG/1.1/DTD/svg11.dtd">
<svg version="1.1" id="レイヤー_1" xmlns="http://www.w3.org/2000/svg" xmlns:xlink="http://www.w3.org/1999/xlink" x="0px"
	 y="0px" width="986.724px" height="76px" viewBox="0 0 986.724 76" style="enable-background:new 0 0 986.724 76;"
	 xml:space="preserve">
<pattern  x="524" y="-359" width="122.88" height="122.88" patternUnits="userSpaceOnUse" id="Unnamed_Pattern" viewBox="0 -122.881 122.88 122.88" style="overflow:visible;">
	<g>
		<polygon style="fill:none;" points="0,-122.881 122.88,-122.881 122.88,-0.001 0,-0.001 		"/>
		<g>
			<defs>
				<rect id="SVGID_1_" x="0" y="-122.88" width="122.88" height="122.88"/>
			</defs>
			<clipPath id="SVGID_2_">
				<use xlink:href="#SVGID_1_"  style="overflow:visible;"/>
			</clipPath>
			<g transform="matrix(1 0 0 1 -4.547474e-013 0)" style="clip-path:url(#SVGID_2_);">
				
					<image style="overflow:visible;" width="512" height="512" xlink:href="EC6418DF.html"  transform="matrix(0.24 0 0 -0.24 7.500000e-006 0)">
				</image>
			</g>
		</g>
	</g>
</pattern>
<pattern  x="524" y="-359" width="122.88" height="122.88" patternUnits="userSpaceOnUse" id="Unnamed_Pattern_2" viewBox="0 -122.881 122.88 122.88" style="overflow:visible;">
	<g>
		<polygon style="fill:none;" points="0,-122.881 122.88,-122.881 122.88,-0.001 0,-0.001 		"/>
		<g>
			<defs>
				<rect id="SVGID_3_" x="0" y="-122.88" width="122.88" height="122.88"/>
			</defs>
			<clipPath id="SVGID_4_">
				<use xlink:href="#SVGID_3_"  style="overflow:visible;"/>
			</clipPath>
			<g transform="matrix(1 0 0 1 -4.547474e-013 0)" style="clip-path:url(#SVGID_4_);">
				
					<image style="overflow:visible;" width="512" height="512" xlink:href="EC6418DD.html"  transform="matrix(0.24 0 0 -0.24 7.500000e-006 0)">
				</image>
			</g>
		</g>
	</g>
</pattern>
<pattern  x="524" y="-359" width="122.88" height="122.88" patternUnits="userSpaceOnUse" id="Unnamed_Pattern_3" viewBox="0 -122.881 122.88 122.88" style="overflow:visible;">
	<g>
		<polygon style="fill:none;" points="0,-122.881 122.88,-122.881 122.88,-0.001 0,-0.001 		"/>
		<g>
			<defs>
				<rect id="SVGID_5_" x="0" y="-122.88" width="122.88" height="122.88"/>
			</defs>
			<clipPath id="SVGID_6_">
				<use xlink:href="#SVGID_5_"  style="overflow:visible;"/>
			</clipPath>
			<g transform="matrix(1 0 0 1 -4.547474e-013 0)" style="clip-path:url(#SVGID_6_);">
				
					<image style="overflow:visible;" width="512" height="512" xlink:href="EC6418E3.html"  transform="matrix(0.24 0 0 -0.24 7.500000e-006 0)">
				</image>
			</g>
		</g>
	</g>
</pattern>
<pattern  x="524" y="-359" width="122.88" height="122.88" patternUnits="userSpaceOnUse" id="Unnamed_Pattern_4" viewBox="0 -122.881 122.88 122.88" style="overflow:visible;">
	<g>
		<polygon style="fill:none;" points="0,-122.881 122.88,-122.881 122.88,-0.001 0,-0.001 		"/>
		<g>
			<defs>
				<rect id="SVGID_7_" x="0" y="-122.88" width="122.88" height="122.88"/>
			</defs>
			<clipPath id="SVGID_8_">
				<use xlink:href="#SVGID_7_"  style="overflow:visible;"/>
			</clipPath>
			<g transform="matrix(1 0 0 1 -4.547474e-013 0)" style="clip-path:url(#SVGID_8_);">
				
					<image style="overflow:visible;" width="512" height="512" xlink:href="EC6418E5.html"  transform="matrix(0.24 0 0 -0.24 7.500000e-006 0)">
				</image>
			</g>
		</g>
	</g>
</pattern>
<g>
	<path style="fill:#F3FAFB;" d="M656.057,75.75h330.666H656.057z"/>
	<line style="fill:none;stroke:#231815;stroke-width:0.283;stroke-miterlimit:10;" x1="0" y1="75.75" x2="986.724" y2="75.75"/>
</g>
<g>
	<path style="fill:#BC7848;" d="M877.672,57.841h0.404c0.186,0.929,1.012,1.062,1.404,1.062c0.699,0,1.2-0.42,1.2-1.062
		c0-0.848-0.671-1.101-1.422-1.373c-0.583-0.213-1.425-0.516-1.425-1.549c0-0.983,0.826-1.476,1.661-1.476
		c0.42,0,0.745,0.089,1.055,0.186c0.124,0.036,0.215,0.052,0.31,0.059l0.081,0.878l-0.398,0.029
		c-0.134-0.53-0.642-0.766-1.122-0.766c-0.606,0-1.107,0.353-1.107,0.943c0,0.649,0.582,0.857,1.275,1.105
		c0.68,0.253,1.625,0.592,1.625,1.787c0,0.886-0.583,1.625-1.831,1.625c-0.664,0-1.048-0.17-1.291-0.279
		c-0.198-0.098-0.222-0.105-0.339-0.128L877.672,57.841"/>
	<path style="fill:#BC7848;" d="M887.578,56.004v-1.632c0-0.31-0.038-0.509-0.478-0.509h-0.201V53.56h1.957v0.303h-0.207
		c-0.446,0-0.473,0.2-0.473,0.509v3.983c0,0.348,0.052,0.511,0.473,0.511h0.207v0.303h-1.957v-0.303h0.201
		c0.434,0,0.478-0.184,0.478-0.511v-1.96h-2.945v1.96c0,0.336,0.052,0.511,0.479,0.511h0.201v0.303h-1.957v-0.303h0.2
		c0.442,0,0.478-0.184,0.478-0.511v-3.983c0-0.318-0.036-0.509-0.478-0.509h-0.2V53.56h1.957v0.303h-0.201
		c-0.449,0-0.479,0.207-0.479,0.509v1.632H887.578"/>
	<path style="fill:#BC7848;" d="M893.054,53.56v0.303h-0.201c-0.449,0-0.478,0.207-0.478,0.509v2.898c0,0.408,0,1.618,1.659,1.618
		c0.738,0,1.743-0.236,1.743-1.565v-2.952c0-0.325-0.045-0.509-0.48-0.509h-0.2V53.56h1.757v0.303h-0.2
		c-0.451,0-0.48,0.2-0.48,0.509v2.972c0,1.934-1.805,1.941-2.169,1.941c-0.312,0-1.638-0.045-2.053-1.01
		c-0.184-0.429-0.177-0.79-0.177-0.997v-2.907c0-0.318-0.036-0.509-0.478-0.509h-0.2V53.56H893.054"/>
	<path style="fill:#BC7848;" d="M903.664,53.56l0.207,1.299h-0.385c-0.122-0.503-0.331-0.907-1.046-0.907h-0.656v4.402
		c0,0.334,0.052,0.511,0.48,0.511h0.265v0.303h-2.083v-0.303h0.267c0.427,0,0.473-0.17,0.473-0.511v-4.402h-0.649
		c-0.702,0-0.917,0.375-1.05,0.907h-0.382l0.206-1.299H903.664"/>
	<path style="fill:#BC7848;" d="M911.975,56.364c0,1.735-1.246,2.923-2.938,2.923c-1.681,0-2.921-1.203-2.921-2.923
		c0-1.683,1.194-2.922,2.929-2.922C910.773,53.442,911.975,54.674,911.975,56.364 M906.765,56.32c0,1.277,0.738,2.575,2.272,2.575
		c1.611,0,2.282-1.289,2.282-2.487c0-0.694-0.287-2.573-2.384-2.573C907.732,53.835,906.765,54.821,906.765,56.32"/>
	<path style="fill:#BC7848;" d="M915.999,53.56v0.303h-0.2c-0.449,0-0.48,0.207-0.48,0.509v2.898c0,0.408,0,1.618,1.661,1.618
		c0.738,0,1.742-0.236,1.742-1.565v-2.952c0-0.325-0.043-0.509-0.478-0.509h-0.201V53.56h1.757v0.303h-0.198
		c-0.451,0-0.48,0.2-0.48,0.509v2.972c0,1.934-1.807,1.941-2.169,1.941c-0.311,0-1.638-0.045-2.053-1.01
		c-0.184-0.429-0.177-0.79-0.177-0.997v-2.907c0-0.318-0.036-0.509-0.48-0.509h-0.2V53.56H915.999"/>
	<path style="fill:#BC7848;" d="M885.237,67.298h0.406c0.184,0.931,1.01,1.064,1.403,1.064c0.7,0,1.201-0.42,1.201-1.064
		c0-0.848-0.671-1.1-1.423-1.372c-0.583-0.213-1.425-0.516-1.425-1.549c0-0.984,0.826-1.477,1.663-1.477
		c0.42,0,0.745,0.088,1.053,0.184c0.126,0.038,0.213,0.053,0.312,0.06l0.079,0.878l-0.398,0.028c-0.131-0.53-0.64-0.766-1.122-0.766
		c-0.604,0-1.105,0.354-1.105,0.945c0,0.649,0.58,0.857,1.274,1.105c0.682,0.253,1.625,0.592,1.625,1.787
		c0,0.886-0.582,1.625-1.829,1.625c-0.666,0-1.048-0.17-1.292-0.28c-0.198-0.096-0.222-0.103-0.339-0.128L885.237,67.298"/>
	<path style="fill:#BC7848;" d="M895.143,65.461v-1.63c0-0.312-0.036-0.509-0.478-0.509h-0.2v-0.303h1.955v0.303h-0.207
		c-0.444,0-0.471,0.198-0.471,0.509v3.982c0,0.348,0.05,0.509,0.471,0.509h0.207v0.305h-1.955v-0.305h0.2
		c0.435,0,0.478-0.183,0.478-0.509v-1.96H892.2v1.96c0,0.334,0.05,0.509,0.477,0.509h0.203v0.305h-1.957v-0.305h0.2
		c0.441,0,0.477-0.183,0.477-0.509v-3.982c0-0.318-0.036-0.509-0.477-0.509h-0.2v-0.303h1.957v0.303h-0.203
		c-0.449,0-0.477,0.207-0.477,0.509v1.63H895.143"/>
	<path style="fill:#BC7848;" d="M900.619,63.019v0.303h-0.2c-0.449,0-0.48,0.207-0.48,0.509v2.898c0,0.408,0,1.616,1.661,1.616
		c0.738,0,1.742-0.234,1.742-1.563v-2.952c0-0.325-0.043-0.509-0.478-0.509h-0.201v-0.303h1.757v0.303h-0.198
		c-0.453,0-0.482,0.198-0.482,0.509v2.972c0,1.934-1.805,1.941-2.169,1.941c-0.31,0-1.638-0.045-2.051-1.01
		c-0.184-0.429-0.177-0.79-0.177-0.998v-2.905c0-0.318-0.038-0.509-0.48-0.509h-0.2v-0.303H900.619"/>
	<path style="fill:#BC7848;" d="M907.836,63.019l3.535,4.473v-3.661c0-0.312-0.036-0.509-0.48-0.509h-0.2v-0.303h1.742v0.303h-0.198
		c-0.444,0-0.482,0.191-0.482,0.509v4.797h-0.248l-3.778-4.783v3.969c0,0.332,0.043,0.509,0.47,0.509h0.206v0.305h-1.75v-0.305h0.21
		c0.434,0,0.47-0.182,0.47-0.509v-3.982c0-0.318-0.036-0.509-0.47-0.509h-0.21v-0.303H907.836"/>
	<path style="fill:#BC7848;" d="M918.878,67.807c0.322,0.422,0.647,0.429,0.854,0.437v0.384h-0.986l-2.268-2.998l-0.53,0.563v1.621
		c0,0.332,0.045,0.509,0.472,0.509h0.207v0.305h-1.96v-0.305h0.205c0.435,0,0.471-0.184,0.471-0.509V63.83
		c0-0.317-0.028-0.508-0.471-0.508h-0.205v-0.303h1.96v0.303h-0.207c-0.449,0-0.472,0.207-0.472,0.508v1.809l1.867-1.95l0.157-0.257
		l-0.217-0.11h-0.241v-0.303h1.792v0.303h-0.155c-0.318,0-0.575,0.126-0.9,0.465l-1.358,1.423L918.878,67.807"/>
	<path style="fill:#BC7848;" d="M923.423,66.606l-0.523,1.372l-0.029,0.134c0,0.212,0.213,0.212,0.487,0.212v0.303h-1.497v-0.303
		c0.272,0,0.492-0.007,0.62-0.341l1.962-5.103h0.272l1.941,5.075c0.133,0.355,0.339,0.368,0.664,0.368v0.303h-1.8v-0.303
		c0.382,0,0.546,0,0.546-0.205l-0.036-0.148l-0.516-1.365H923.423 M925.364,66.221l-0.893-2.346l-0.9,2.346H925.364z"/>
	<path style="fill:#BC7848;" d="M889.77,36.694c0.077-0.107-0.971-1.588-0.396-3.793c0.573-2.203,0.885-6.306-1.941-9.173
		c-2.955-2.998-5.557-3.44-6.442-2.778c-0.879,0.659,0,1.871,1.015,4.014c1.236,2.6,0.573,4.807-0.528,7.85
		c-1.103,3.043-4.814,6.541-3.528,10.276c1.368,3.969,3.969,4.719,6.173,4.852c2.206,0.133,3.618-0.354,4.853-1.103
		C890.211,46.089,889.415,37.18,889.77,36.694"/>
	<path style="fill:#BC7848;" d="M908.293,37.62c0,0-0.616,0.706-2.647,0.883c-2.027,0.177-3.748-0.486-3.748-0.486
		s-1.101,1.103-0.528,2.029c0.573,0.926,2.16,0.793,2.867,0.618c0.706-0.177,1.368-0.133,1.544,0.263
		c0.177,0.397-0.045,0.663-0.045,0.663s-0.089-0.353-0.267-0.353c-0.174,0,0.046,0.396-0.086,0.618
		c-0.134,0.22-0.176-0.442-0.351-0.396c-0.179,0.041-0.09,0.396-0.179,0.527c-0.088,0.133-0.396-0.793-1.014-0.616
		c-0.616,0.176-0.969,2.47-3.662,2.47c-2.688,0-2.819-2.206-2.996-2.955c-0.177-0.75-2.031,0.308-2.557,1.191
		c-0.532,0.881-2.384,4.762-2.384,4.762s-3.736,1.549-5.69-1.146c-1.74-2.404-0.904-5.91-0.396-7.232
		c0.384-1.003,1.067-3.74,5.115-5.027c3.881-1.237,6.173,0.041,6.173,0.041s0.349-1.069,1.31-2.069
		c-0.212-0.282-0.398-0.613-0.463-0.967c-0.182-1.002,0.384-2.516,0.799-2.821c0.417-0.305,1.354-0.213,2.373,0.752
		c0.459,0.436,0.657,0.933,0.743,1.368c0.509-0.052,1.065-0.048,1.68,0.033C908.911,30.433,908.293,37.62,908.293,37.62
		 M901.725,31.314c0.287-1.201-0.336-2.292-1.496-2.668c-0.695-0.224-0.904,0.212-0.962,0.867c-0.071,0.767,0.145,1.573,0.608,2.198
		C900.442,32.469,901.231,31.359,901.725,31.314 M903.706,34.988c0.52,0,0.941-0.422,0.941-0.94c0-0.52-0.422-0.941-0.941-0.941
		c-0.518,0-0.94,0.422-0.94,0.941C902.767,34.567,903.188,34.988,903.706,34.988"/>
	<path style="fill:#BC7848;" d="M907.896,37.4c0-0.292,0.237-0.53,0.53-0.53s0.528,0.238,0.528,0.53c0,0.293-0.236,0.53-0.528,0.53
		S907.896,37.693,907.896,37.4"/>
	<path style="fill:#BC7848;" d="M891.357,38.15c2.924,0,5.292,2.37,5.292,5.292c0,1.311-0.477,2.511-1.268,3.437
		c1.585-0.177,4.013-0.373,4.709,0.004c1.058,0.573,0.575,1.719-0.22,1.852c-0.632,0.107-8.294,0-8.512,0
		c-2.922,0-5.292-2.37-5.292-5.292C886.064,40.52,888.434,38.15,891.357,38.15"/>
	<path style="fill:#BC7848;" d="M903.937,40.182l-1.979-0.816c0,0-0.029,0.436,0.463,0.704
		C902.911,40.337,903.937,40.182,903.937,40.182"/>
	<path style="fill:#BC7848;" d="M878.795,35.323l-2.79-1.107c0,0-0.399-1.428,0.079-2.611c0.477-1.182,1.754-1.933,1.754-1.933
		l3.132,1.265c0,0-0.088,0.692-0.645,1.993C879.766,34.233,878.795,35.323,878.795,35.323"/>
	<path style="fill:#BC7848;" d="M901.105,44.326l10.578,4.27c0,0-0.377-1.475,0.081-2.611c0.458-1.134,1.754-1.933,1.754-1.933
		l-6.722-2.73c0,0-0.172,0.535-0.425,0.859c-0.234,0.3-0.608,0.553-1.084,0.608c-0.478,0.057-1.083-0.733-1.251-0.425
		c-0.169,0.31-0.534,1.095-1.227,1.564C902.167,44.363,901.105,44.326,901.105,44.326"/>
	<path style="fill:#BC7848;" d="M876.472,29.607c0,0-0.95,0.67-1.323,1.59c-0.37,0.919-0.184,2.041-0.184,2.041l-3.828-1.52
		c0,0-0.32-1.157,0.065-2.115c0.387-0.96,1.423-1.566,1.423-1.566L876.472,29.607"/>
	<path style="fill:#BC7848;" d="M919.137,49.004l-6.536,0.002c0,0-0.396-1.425,0.081-2.609c0.477-1.182,1.754-1.934,1.754-1.934
		L919.137,49.004"/>
	<pattern  id="SVGID_9_" xlink:href="#Unnamed_Pattern" patternTransform="matrix(1.721 0 0 -1.721 6132.917 6935.0405)">
	</pattern>
	<path style="fill:url(#SVGID_9_);" d="M930.465,48.963c-0.812-0.039-1.449-0.329-1.828-0.504c-0.005-0.002-0.01-0.003-0.017-0.007
		c0,0-0.268,0.007-0.379,0.007c-0.339,0-0.859-0.021-1.437-0.201c-0.112-0.036-0.232-0.06-0.349-0.088
		c-0.38-0.09-0.9-0.21-1.442-0.458c-0.528-0.239-0.981-0.523-1.382-0.774l-0.241-0.15c-0.565-0.348-1.064-0.742-1.499-1.09
		c-0.428-0.341-0.776-0.699-1.081-1.014l-0.248-0.253c-0.453-0.451-0.833-0.871-1.169-1.286c-0.32-0.399-0.642-0.85-1.007-1.415
		c-0.423-0.661-0.559-1.312-0.642-1.7v-0.005c-0.012-0.017-0.026-0.034-0.038-0.051c-0.222-0.3-0.558-0.752-0.792-1.374
		c-0.239-0.642-0.277-1.215-0.301-1.594c-0.002-0.021-0.003-0.04-0.003-0.057c-0.005-0.009-0.009-0.015-0.012-0.024
		c-0.182-0.339-0.489-0.909-0.597-1.657c-0.074-0.518-0.079-0.991-0.083-1.373c-0.002-0.121-0.002-0.243-0.007-0.362
		c-0.003-0.101-0.022-0.205-0.036-0.308c-0.048-0.363-0.115-0.864-0.072-1.439c0.059-0.764,0.33-1.359,0.492-1.716
		c0.009-0.021,0.019-0.041,0.029-0.064c0.002-0.045,0.003-0.091,0.007-0.141c0.021-0.361,0.05-0.907,0.241-1.509
		c0.002-0.019,0.01-0.095,0.021-0.169c0.055-0.379,0.139-0.952,0.417-1.563c0.324-0.723,0.809-1.198,1.1-1.482
		c0.024-0.024,0.048-0.045,0.071-0.069c0.236-0.384,0.542-0.857,0.916-1.332c0.336-0.429,0.694-0.883,1.145-1.336
		c0.391-0.389,0.786-0.687,1.103-0.928c0.093-0.069,0.186-0.138,0.274-0.208l0.256-0.205c0.317-0.255,0.673-0.542,1.112-0.819
		c0.043-0.034,0.083-0.076,0.124-0.114c0.294-0.275,0.742-0.692,1.396-0.996c0.583-0.27,1.141-0.496,1.664-0.673
		c0.38-0.127,0.785-0.191,1.205-0.191c0.22,0,0.423,0.019,0.601,0.039c0.391-0.239,0.953-0.521,1.671-0.601
		c0.286-0.033,0.582-0.048,0.931-0.048c0.155,0,0.701,0.012,0.814,0.012h0.065c0.523,0,0.979,0.071,1.344,0.129
		c0.127,0.021,0.255,0.041,0.38,0.055l0.322,0.028c0.425,0.038,0.907,0.077,1.432,0.188c0.799,0.165,1.375,0.554,1.718,0.785
		c0.017,0.014,0.038,0.024,0.057,0.038l0.031,0.011c0.432,0.139,0.924,0.298,1.451,0.539h0.002c0.014,0,0.079,0.014,0.145,0.031
		c0.375,0.098,0.94,0.244,1.53,0.602c0.453,0.272,0.978,0.597,1.494,1.002c0.489,0.38,0.945,0.783,1.356,1.196
		c0.057,0.051,0.133,0.107,0.203,0.162c0.308,0.237,0.726,0.563,1.112,1.053c0.415,0.532,0.633,1.071,0.778,1.427
		c0.029,0.069,0.053,0.141,0.086,0.207c0.275,0.458,0.482,0.931,0.663,1.351l0.09,0.207c0.236,0.53,0.341,1.024,0.417,1.384
		c0.021,0.103,0.04,0.207,0.069,0.307c0.028,0.086,0.069,0.168,0.105,0.255c0.146,0.342,0.346,0.814,0.451,1.411
		c0.088,0.496,0.181,1.091,0.22,1.735c0.029,0.527-0.005,1.012-0.033,1.399l-0.024,0.336c-0.033,0.625-0.193,1.139-0.298,1.48
		c-0.024,0.076-0.052,0.151-0.067,0.229c-0.077,0.472-0.194,0.905-0.301,1.296c0.057,0.458,0.131,1.241-0.205,2.1
		c-0.298,0.762-0.795,1.263-1.133,1.568c-0.105,0.367-0.27,0.878-0.618,1.408c-0.058,0.093-0.112,0.195-0.169,0.296
		c-0.17,0.31-0.404,0.735-0.749,1.16c-0.384,0.472-0.795,0.881-1.156,1.244c-0.105,0.105-0.193,0.196-0.281,0.289
		c-0.294,0.308-0.63,0.658-1.05,0.993l-0.226,0.184c-0.36,0.292-0.769,0.625-1.248,0.926c-0.633,0.397-1.251,0.544-1.659,0.642
		c-0.045,0.01-0.093,0.021-0.136,0.029c-0.057,0.036-0.115,0.076-0.176,0.117c-0.337,0.217-0.797,0.515-1.409,0.718
		c-0.535,0.179-1.04,0.265-1.446,0.334c-0.122,0.022-0.244,0.043-0.367,0.067c-0.282,0.057-0.57,0.084-0.876,0.084
		c-0.348,0-0.651-0.036-0.873-0.064c-0.009,0-0.016-0.002-0.022-0.002c-0.372,0.138-0.979,0.36-1.731,0.36h-0.072L930.465,48.963z"
		/>
	<defs>
		<filter id="Adobe_OpacityMaskFilter" filterUnits="userSpaceOnUse" x="915.789" y="17.663" width="31.131" height="31.306">
			
				<feColorMatrix  type="matrix" values="-1 0 0 0 1  0 -1 0 0 1  0 0 -1 0 1  0 0 0 1 0" color-interpolation-filters="sRGB" result="source"/>
		</filter>
	</defs>
	<mask maskUnits="userSpaceOnUse" x="915.789" y="17.663" width="31.131" height="31.306" id="SVGID_10_">
		<g style="filter:url(#Adobe_OpacityMaskFilter);">
			<g style="enable-background:new    ;">
				<g>
					<defs>
						<rect id="SVGID_11_" x="914.478" y="16.252" width="33.768" height="34.081"/>
					</defs>
					<clipPath id="SVGID_12_">
						<use xlink:href="#SVGID_11_"  style="overflow:visible;"/>
					</clipPath>
					<g transform="matrix(1 0 0 1 6.103516e-005 0)" style="clip-path:url(#SVGID_12_);">
						
							<image style="overflow:visible;" width="216" height="218" xlink:href="EC6418E7.html"  transform="matrix(0.1563 0 0 0.1563 914.478 16.2518)">
						</image>
					</g>
				</g>
			</g>
		</g>
	</mask>
	<g style="opacity:0.7;mask:url(#SVGID_10_);">
		<g>
			<defs>
				<rect id="SVGID_13_" x="915.791" y="17.663" width="31.13" height="31.306"/>
			</defs>
			<clipPath id="SVGID_14_">
				<use xlink:href="#SVGID_13_"  style="overflow:visible;"/>
			</clipPath>
			<path style="clip-path:url(#SVGID_14_);fill:#A29F9D;" d="M930.465,48.963c-0.812-0.039-1.449-0.329-1.828-0.504
				c-0.005-0.002-0.01-0.003-0.017-0.007c0,0-0.268,0.007-0.379,0.007c-0.339,0-0.859-0.021-1.437-0.201
				c-0.112-0.036-0.232-0.06-0.349-0.088c-0.38-0.09-0.9-0.21-1.442-0.458c-0.528-0.239-0.981-0.523-1.382-0.774l-0.241-0.15
				c-0.565-0.348-1.064-0.742-1.499-1.09c-0.428-0.341-0.776-0.699-1.081-1.014l-0.248-0.253c-0.453-0.451-0.833-0.871-1.169-1.286
				c-0.32-0.399-0.642-0.85-1.007-1.415c-0.423-0.661-0.559-1.312-0.642-1.7v-0.005c-0.012-0.017-0.026-0.034-0.038-0.051
				c-0.222-0.3-0.558-0.752-0.792-1.374c-0.239-0.642-0.277-1.215-0.301-1.594c-0.002-0.021-0.003-0.04-0.003-0.057
				c-0.005-0.009-0.009-0.015-0.012-0.024c-0.182-0.339-0.489-0.909-0.597-1.657c-0.074-0.518-0.079-0.991-0.083-1.373
				c-0.002-0.121-0.002-0.243-0.007-0.362c-0.003-0.101-0.022-0.205-0.036-0.308c-0.048-0.363-0.115-0.864-0.072-1.439
				c0.059-0.764,0.33-1.359,0.492-1.716c0.009-0.021,0.019-0.041,0.029-0.064c0.002-0.045,0.003-0.091,0.007-0.141
				c0.021-0.361,0.05-0.907,0.241-1.509c0.002-0.019,0.01-0.095,0.021-0.169c0.055-0.379,0.139-0.952,0.417-1.563
				c0.324-0.723,0.809-1.198,1.1-1.482c0.024-0.024,0.048-0.045,0.071-0.069c0.236-0.384,0.542-0.857,0.916-1.332
				c0.336-0.429,0.694-0.883,1.145-1.336c0.391-0.389,0.786-0.687,1.103-0.928c0.093-0.069,0.186-0.138,0.274-0.208l0.256-0.205
				c0.317-0.255,0.673-0.542,1.112-0.819c0.043-0.034,0.083-0.076,0.124-0.114c0.294-0.275,0.742-0.692,1.396-0.996
				c0.583-0.27,1.141-0.496,1.664-0.673c0.38-0.127,0.785-0.191,1.205-0.191c0.22,0,0.423,0.019,0.601,0.039
				c0.391-0.239,0.953-0.521,1.671-0.601c0.286-0.033,0.582-0.048,0.931-0.048c0.155,0,0.701,0.012,0.814,0.012h0.065
				c0.523,0,0.979,0.071,1.344,0.129c0.127,0.021,0.255,0.041,0.38,0.055l0.322,0.028c0.425,0.038,0.907,0.077,1.432,0.188
				c0.799,0.165,1.375,0.554,1.718,0.785c0.017,0.014,0.038,0.024,0.057,0.038l0.031,0.011c0.432,0.139,0.924,0.298,1.451,0.539
				h0.002c0.014,0,0.079,0.014,0.145,0.031c0.375,0.098,0.94,0.244,1.53,0.602c0.453,0.272,0.978,0.597,1.494,1.002
				c0.489,0.38,0.945,0.783,1.356,1.196c0.057,0.051,0.133,0.107,0.203,0.162c0.308,0.237,0.726,0.563,1.112,1.053
				c0.415,0.532,0.633,1.071,0.778,1.427c0.029,0.069,0.053,0.141,0.086,0.207c0.275,0.458,0.482,0.931,0.663,1.351l0.09,0.207
				c0.236,0.53,0.341,1.024,0.417,1.384c0.021,0.103,0.04,0.207,0.069,0.307c0.028,0.086,0.069,0.168,0.105,0.255
				c0.146,0.342,0.346,0.814,0.451,1.411c0.088,0.496,0.181,1.091,0.22,1.735c0.029,0.527-0.005,1.012-0.033,1.399l-0.024,0.336
				c-0.033,0.625-0.193,1.139-0.298,1.48c-0.024,0.076-0.052,0.151-0.067,0.229c-0.077,0.472-0.194,0.905-0.301,1.296
				c0.057,0.458,0.131,1.241-0.205,2.1c-0.298,0.762-0.795,1.263-1.133,1.568c-0.105,0.367-0.27,0.878-0.618,1.408
				c-0.058,0.093-0.112,0.195-0.169,0.296c-0.17,0.31-0.404,0.735-0.749,1.16c-0.384,0.472-0.795,0.881-1.156,1.244
				c-0.105,0.105-0.193,0.196-0.281,0.289c-0.294,0.308-0.63,0.658-1.05,0.993l-0.226,0.184c-0.36,0.292-0.769,0.625-1.248,0.926
				c-0.633,0.397-1.251,0.544-1.659,0.642c-0.045,0.01-0.093,0.021-0.136,0.029c-0.057,0.036-0.115,0.076-0.176,0.117
				c-0.337,0.217-0.797,0.515-1.409,0.718c-0.535,0.179-1.04,0.265-1.446,0.334c-0.122,0.022-0.244,0.043-0.367,0.067
				c-0.282,0.057-0.57,0.084-0.876,0.084c-0.348,0-0.651-0.036-0.873-0.064c-0.009,0-0.016-0.002-0.022-0.002
				c-0.372,0.138-0.979,0.36-1.731,0.36h-0.072L930.465,48.963z"/>
		</g>
	</g>
	<g>
		<g>
			<defs>
				<rect id="SVGID_15_" x="915.791" y="17.663" width="31.13" height="31.306"/>
			</defs>
			<clipPath id="SVGID_16_">
				<use xlink:href="#SVGID_15_"  style="overflow:visible;"/>
			</clipPath>
			<g style="clip-path:url(#SVGID_16_);">
				<defs>
					<path id="SVGID_17_" d="M930.464,48.963c-0.811-0.039-1.447-0.329-1.828-0.504c-0.005-0.002-0.01-0.004-0.017-0.007
						c0,0-0.267,0.007-0.379,0.007c-0.339,0-0.859-0.021-1.437-0.201c-0.112-0.036-0.231-0.06-0.349-0.088
						c-0.379-0.09-0.898-0.21-1.442-0.458c-0.527-0.239-0.981-0.523-1.38-0.774l-0.243-0.15c-0.564-0.347-1.062-0.742-1.499-1.089
						c-0.429-0.341-0.774-0.699-1.081-1.014l-0.248-0.253c-0.451-0.451-0.833-0.871-1.167-1.286
						c-0.322-0.399-0.642-0.85-1.007-1.415c-0.423-0.661-0.559-1.311-0.642-1.7v-0.005c-0.014-0.017-0.028-0.034-0.04-0.052
						c-0.222-0.299-0.558-0.752-0.792-1.373c-0.237-0.642-0.277-1.215-0.301-1.594c0-0.021-0.002-0.039-0.002-0.057
						c-0.005-0.009-0.009-0.016-0.012-0.024c-0.184-0.339-0.489-0.909-0.599-1.657c-0.074-0.518-0.079-0.991-0.083-1.373
						c-0.002-0.12-0.002-0.243-0.007-0.361c-0.003-0.102-0.021-0.205-0.034-0.308c-0.05-0.363-0.117-0.864-0.072-1.439
						c0.057-0.764,0.329-1.36,0.491-1.716c0.01-0.021,0.021-0.041,0.031-0.064c0-0.045,0.002-0.091,0.005-0.141
						c0.021-0.362,0.052-0.907,0.241-1.509c0.002-0.019,0.01-0.095,0.022-0.169c0.053-0.379,0.138-0.952,0.415-1.564
						c0.324-0.721,0.811-1.196,1.101-1.48c0.022-0.024,0.046-0.045,0.071-0.069c0.234-0.384,0.54-0.857,0.914-1.332
						c0.336-0.428,0.694-0.883,1.145-1.335c0.391-0.389,0.786-0.687,1.105-0.928c0.091-0.069,0.184-0.138,0.274-0.208l0.255-0.205
						c0.318-0.255,0.675-0.542,1.113-0.819c0.041-0.034,0.081-0.076,0.122-0.114c0.296-0.275,0.743-0.692,1.396-0.996
						c0.583-0.27,1.143-0.496,1.664-0.673c0.38-0.128,0.785-0.191,1.205-0.191c0.22,0,0.425,0.019,0.601,0.04
						c0.392-0.239,0.955-0.521,1.673-0.601c0.286-0.033,0.582-0.048,0.931-0.048c0.155,0,0.699,0.012,0.812,0.012h0.067
						c0.521,0,0.978,0.071,1.344,0.127c0.126,0.022,0.253,0.043,0.379,0.057l0.322,0.028c0.425,0.038,0.907,0.078,1.432,0.188
						c0.799,0.165,1.375,0.554,1.718,0.785c0.019,0.014,0.04,0.024,0.057,0.038l0.031,0.01c0.434,0.139,0.924,0.298,1.453,0.539
						h0.002c0.012,0,0.077,0.014,0.145,0.031c0.373,0.098,0.938,0.244,1.528,0.602c0.453,0.272,0.979,0.597,1.494,1.002
						c0.491,0.38,0.945,0.783,1.356,1.196c0.058,0.052,0.134,0.107,0.205,0.162c0.306,0.238,0.726,0.563,1.11,1.053
						c0.415,0.532,0.633,1.07,0.778,1.427c0.029,0.069,0.055,0.141,0.086,0.207c0.275,0.458,0.482,0.931,0.663,1.351l0.091,0.207
						c0.234,0.53,0.339,1.024,0.417,1.384c0.021,0.103,0.038,0.207,0.069,0.306c0.026,0.086,0.067,0.169,0.103,0.255
						c0.146,0.342,0.348,0.814,0.451,1.411c0.088,0.496,0.182,1.091,0.22,1.735c0.031,0.526-0.005,1.012-0.033,1.399l-0.022,0.336
						c-0.034,0.625-0.194,1.139-0.299,1.48c-0.024,0.076-0.05,0.151-0.067,0.229c-0.078,0.471-0.193,0.905-0.301,1.296
						c0.057,0.458,0.131,1.241-0.205,2.1c-0.298,0.762-0.795,1.263-1.131,1.568c-0.107,0.367-0.27,0.878-0.62,1.408
						c-0.059,0.093-0.112,0.194-0.167,0.296c-0.172,0.31-0.406,0.735-0.75,1.16c-0.382,0.472-0.795,0.881-1.157,1.244
						c-0.103,0.105-0.193,0.196-0.281,0.289c-0.294,0.308-0.63,0.657-1.048,0.993l-0.227,0.184c-0.36,0.293-0.768,0.625-1.248,0.926
						c-0.633,0.397-1.249,0.544-1.657,0.642c-0.047,0.01-0.093,0.021-0.138,0.029c-0.057,0.036-0.115,0.076-0.176,0.117
						c-0.336,0.217-0.797,0.515-1.408,0.718c-0.537,0.179-1.041,0.265-1.446,0.334c-0.124,0.022-0.246,0.043-0.367,0.067
						c-0.282,0.057-0.57,0.084-0.878,0.084c-0.348,0-0.651-0.036-0.872-0.064c-0.009,0-0.016-0.002-0.022-0.002
						c-0.37,0.138-0.979,0.36-1.73,0.36h-0.072L930.464,48.963z"/>
				</defs>
				<clipPath id="SVGID_18_">
					<use xlink:href="#SVGID_17_"  style="overflow:visible;"/>
				</clipPath>
				
					<linearGradient id="SVGID_19_" gradientUnits="userSpaceOnUse" x1="510.4585" y1="872.7198" x2="512.1796" y2="872.7198" gradientTransform="matrix(-10.7102 0 0 10.7102 6410.0898 -9313.6641)">
					<stop  offset="0" style="stop-color:#F3E837"/>
					<stop  offset="1" style="stop-color:#D9382F"/>
				</linearGradient>
				<rect x="915.76" y="17.665" style="clip-path:url(#SVGID_18_);fill:url(#SVGID_19_);" width="31.18" height="31.304"/>
			</g>
			<g style="clip-path:url(#SVGID_16_);">
				<defs>
					<path id="SVGID_20_" d="M930.464,48.963c-0.811-0.039-1.447-0.329-1.828-0.504c-0.005-0.002-0.01-0.004-0.017-0.007
						c0,0-0.267,0.007-0.379,0.007c-0.339,0-0.859-0.021-1.437-0.201c-0.112-0.036-0.231-0.06-0.349-0.088
						c-0.379-0.09-0.898-0.21-1.442-0.458c-0.527-0.239-0.981-0.523-1.38-0.774l-0.243-0.15c-0.564-0.347-1.062-0.742-1.499-1.089
						c-0.429-0.341-0.774-0.699-1.081-1.014l-0.248-0.253c-0.451-0.451-0.833-0.871-1.167-1.286
						c-0.322-0.399-0.642-0.85-1.007-1.415c-0.423-0.661-0.559-1.311-0.642-1.7v-0.005c-0.014-0.017-0.028-0.034-0.04-0.052
						c-0.222-0.299-0.558-0.752-0.792-1.373c-0.237-0.642-0.277-1.215-0.301-1.594c0-0.021-0.002-0.039-0.002-0.057
						c-0.005-0.009-0.009-0.016-0.012-0.024c-0.184-0.339-0.489-0.909-0.599-1.657c-0.074-0.518-0.079-0.991-0.083-1.373
						c-0.002-0.12-0.002-0.243-0.007-0.361c-0.003-0.102-0.021-0.205-0.034-0.308c-0.05-0.363-0.117-0.864-0.072-1.439
						c0.057-0.764,0.329-1.36,0.491-1.716c0.01-0.021,0.021-0.041,0.031-0.064c0-0.045,0.002-0.091,0.005-0.141
						c0.021-0.362,0.052-0.907,0.241-1.509c0.002-0.019,0.01-0.095,0.022-0.169c0.053-0.379,0.138-0.952,0.415-1.564
						c0.324-0.721,0.811-1.196,1.101-1.48c0.022-0.024,0.046-0.045,0.071-0.069c0.234-0.384,0.54-0.857,0.914-1.332
						c0.336-0.428,0.694-0.883,1.145-1.335c0.391-0.389,0.786-0.687,1.105-0.928c0.091-0.069,0.184-0.138,0.274-0.208l0.255-0.205
						c0.318-0.255,0.675-0.542,1.113-0.819c0.041-0.034,0.081-0.076,0.122-0.114c0.296-0.275,0.743-0.692,1.396-0.996
						c0.583-0.27,1.143-0.496,1.664-0.673c0.38-0.128,0.785-0.191,1.205-0.191c0.22,0,0.425,0.019,0.601,0.04
						c0.392-0.239,0.955-0.521,1.673-0.601c0.286-0.033,0.582-0.048,0.931-0.048c0.155,0,0.699,0.012,0.812,0.012h0.067
						c0.521,0,0.978,0.071,1.344,0.127c0.126,0.022,0.253,0.043,0.379,0.057l0.322,0.028c0.425,0.038,0.907,0.078,1.432,0.188
						c0.799,0.165,1.375,0.554,1.718,0.785c0.019,0.014,0.04,0.024,0.057,0.038l0.031,0.01c0.434,0.139,0.924,0.298,1.453,0.539
						h0.002c0.012,0,0.077,0.014,0.145,0.031c0.373,0.098,0.938,0.244,1.528,0.602c0.453,0.272,0.979,0.597,1.494,1.002
						c0.491,0.38,0.945,0.783,1.356,1.196c0.058,0.052,0.134,0.107,0.205,0.162c0.306,0.238,0.726,0.563,1.11,1.053
						c0.415,0.532,0.633,1.07,0.778,1.427c0.029,0.069,0.055,0.141,0.086,0.207c0.275,0.458,0.482,0.931,0.663,1.351l0.091,0.207
						c0.234,0.53,0.339,1.024,0.417,1.384c0.021,0.103,0.038,0.207,0.069,0.306c0.026,0.086,0.067,0.169,0.103,0.255
						c0.146,0.342,0.348,0.814,0.451,1.411c0.088,0.496,0.182,1.091,0.22,1.735c0.031,0.526-0.005,1.012-0.033,1.399l-0.022,0.336
						c-0.034,0.625-0.194,1.139-0.299,1.48c-0.024,0.076-0.05,0.151-0.067,0.229c-0.078,0.471-0.193,0.905-0.301,1.296
						c0.057,0.458,0.131,1.241-0.205,2.1c-0.298,0.762-0.795,1.263-1.131,1.568c-0.107,0.367-0.27,0.878-0.62,1.408
						c-0.059,0.093-0.112,0.194-0.167,0.296c-0.172,0.31-0.406,0.735-0.75,1.16c-0.382,0.472-0.795,0.881-1.157,1.244
						c-0.103,0.105-0.193,0.196-0.281,0.289c-0.294,0.308-0.63,0.657-1.048,0.993l-0.227,0.184c-0.36,0.293-0.768,0.625-1.248,0.926
						c-0.633,0.397-1.249,0.544-1.657,0.642c-0.047,0.01-0.093,0.021-0.138,0.029c-0.057,0.036-0.115,0.076-0.176,0.117
						c-0.336,0.217-0.797,0.515-1.408,0.718c-0.537,0.179-1.041,0.265-1.446,0.334c-0.124,0.022-0.246,0.043-0.367,0.067
						c-0.282,0.057-0.57,0.084-0.878,0.084c-0.348,0-0.651-0.036-0.872-0.064c-0.009,0-0.016-0.002-0.022-0.002
						c-0.37,0.138-0.979,0.36-1.73,0.36h-0.072L930.464,48.963z"/>
				</defs>
				<clipPath id="SVGID_21_">
					<use xlink:href="#SVGID_20_"  style="overflow:visible;"/>
				</clipPath>
				
					<linearGradient id="SVGID_22_" gradientUnits="userSpaceOnUse" x1="510.4585" y1="872.7198" x2="512.1796" y2="872.7198" gradientTransform="matrix(-10.7102 0 0 10.7102 6410.0898 -9313.6641)">
					<stop  offset="0" style="stop-color:#F3E837"/>
					<stop  offset="1" style="stop-color:#D9382F"/>
				</linearGradient>
				<rect x="915.76" y="17.665" style="clip-path:url(#SVGID_21_);fill:url(#SVGID_22_);" width="31.18" height="31.304"/>
			</g>
			<g style="clip-path:url(#SVGID_16_);">
				<defs>
					<path id="SVGID_23_" d="M922.497,42.496c-4.924-4.922-4.924-12.906,0-17.83c4.924-4.924,12.906-4.924,17.83,0.002
						c4.924,4.922,4.922,12.904,0,17.828C935.402,47.42,927.421,47.421,922.497,42.496"/>
				</defs>
				<clipPath id="SVGID_24_">
					<use xlink:href="#SVGID_23_"  style="overflow:visible;"/>
				</clipPath>
				
					<linearGradient id="SVGID_25_" gradientUnits="userSpaceOnUse" x1="510.4585" y1="872.7303" x2="512.1796" y2="872.7303" gradientTransform="matrix(-10.7102 0 0 10.7102 6410.0898 -9313.5107)">
					<stop  offset="0" style="stop-color:#F3E837"/>
					<stop  offset="1" style="stop-color:#D9382F"/>
				</linearGradient>
				<rect x="917.574" y="19.742" style="clip-path:url(#SVGID_24_);fill:url(#SVGID_25_);" width="27.678" height="27.679"/>
			</g>
		</g>
	</g>
	<g>
		<g>
			<defs>
				<rect id="SVGID_26_" x="932.053" y="34.667" width="30.519" height="30.462"/>
			</defs>
			<clipPath id="SVGID_27_">
				<use xlink:href="#SVGID_26_"  style="overflow:visible;"/>
			</clipPath>
			<pattern  id="SVGID_28_" xlink:href="#Unnamed_Pattern_2" patternTransform="matrix(1.721 0 0 -1.721 6132.917 6935.0405)">
			</pattern>
			<path style="clip-path:url(#SVGID_27_);fill:url(#SVGID_28_);" d="M946.784,65.121c-0.119,0-0.239-0.003-0.356-0.012
				c-0.652-0.046-1.27-0.127-1.847-0.243c-0.69-0.139-1.218-0.427-1.568-0.614c-0.067-0.036-0.136-0.076-0.205-0.105
				c-0.528-0.177-0.976-0.451-1.299-0.652c-0.024-0.014-0.047-0.028-0.067-0.041c-0.446-0.045-1.22-0.138-1.983-0.62
				c-0.461-0.292-0.824-0.616-1.117-0.876c-0.1-0.089-0.2-0.179-0.303-0.263c-0.38-0.306-0.878-0.718-1.349-1.191
				c-0.394-0.392-0.783-0.831-1.191-1.336c-0.079-0.098-0.167-0.189-0.255-0.286c-0.267-0.287-0.601-0.647-0.9-1.119
				c-0.435-0.694-0.561-1.375-0.632-1.802c-0.258-0.332-0.647-0.831-0.885-1.551c-0.189-0.571-0.248-1.096-0.291-1.482
				c-0.014-0.113-0.022-0.227-0.045-0.336c-0.133-0.687-0.074-1.274-0.031-1.668c-0.182-0.422-0.46-1.134-0.401-2.017
				c0.034-0.508,0.089-1.177,0.224-1.855c0.165-0.831,0.573-1.43,0.819-1.786c0.012-0.019,0.024-0.038,0.038-0.053
				c0.019-0.067,0.038-0.134,0.055-0.2c0.105-0.38,0.236-0.855,0.484-1.37c0.014-0.04,0.033-0.119,0.057-0.196
				c0.112-0.372,0.281-0.931,0.642-1.501c0.334-0.527,0.721-0.897,1.003-1.167c0.069-0.067,0.141-0.129,0.203-0.201
				c0.014-0.024,0.05-0.095,0.091-0.165c0.189-0.332,0.477-0.833,0.945-1.299c0.448-0.449,0.91-0.728,1.246-0.933
				c0.079-0.048,0.16-0.093,0.231-0.145c0.417-0.336,0.845-0.594,1.189-0.8c0.102-0.062,0.205-0.122,0.303-0.188
				c0.485-0.305,0.94-0.518,1.342-0.706l0.468-0.224c0.425-0.207,0.905-0.439,1.466-0.628c0.528-0.179,1.108-0.332,1.764-0.466
				c0.124-0.026,0.246-0.057,0.367-0.084c0.392-0.095,0.883-0.212,1.446-0.255c0.108-0.007,0.222-0.01,0.334-0.01
				c0.54,0,0.986,0.093,1.313,0.162c0.076,0.016,0.151,0.036,0.229,0.046c0.065-0.003,0.155-0.01,0.244-0.015
				c0.201-0.014,0.404-0.024,0.606-0.024c0.337,0,0.649,0.028,0.948,0.083c0.644,0.117,1.138,0.348,1.497,0.516
				c0.065,0.029,0.129,0.064,0.195,0.091c0.05,0.007,0.102,0.01,0.151,0.016c0.404,0.05,1.017,0.12,1.681,0.428
				c0.504,0.234,0.922,0.509,1.262,0.733c0.103,0.069,0.208,0.138,0.313,0.203c0.482,0.299,0.84,0.628,1.126,0.89
				c0.064,0.059,0.126,0.115,0.191,0.174c0.031,0.012,0.06,0.026,0.093,0.041c0.368,0.169,0.984,0.451,1.542,1.009
				c0.406,0.404,0.699,0.828,0.91,1.137c0.071,0.103,0.138,0.205,0.213,0.298c0.079,0.101,0.169,0.201,0.258,0.303
				c0.26,0.296,0.587,0.664,0.878,1.132c0.33,0.53,0.504,1.04,0.63,1.411c0.033,0.098,0.06,0.195,0.103,0.284
				c0.029,0.055,0.079,0.126,0.129,0.198c0.212,0.324,0.532,0.812,0.737,1.448c0.182,0.559,0.244,1.086,0.289,1.471
				c0.016,0.122,0.028,0.244,0.052,0.363c0.145,0.771,0.029,1.437-0.038,1.833c-0.003,0.015-0.005,0.029-0.009,0.043
				c0.007,0.019,0.012,0.038,0.017,0.057c0.11,0.401,0.274,1.008,0.222,1.761c-0.047,0.695-0.255,1.253-0.394,1.623
				c-0.005,0.016-0.012,0.031-0.017,0.048c0.047,0.446,0.117,1.174-0.153,1.995c-0.177,0.535-0.411,0.978-0.601,1.332
				c-0.062,0.117-0.124,0.232-0.179,0.351l-0.046,0.096c-0.22,0.468-0.468,0.995-0.805,1.533l-0.169,0.272
				c-0.219,0.363-0.492,0.814-0.845,1.255c-0.52,0.647-1.158,0.983-1.573,1.177c-0.208,0.337-0.542,0.84-1.081,1.272l-0.268,0.219
				c-0.337,0.279-0.718,0.594-1.182,0.884l-0.077,0.047c-0.444,0.279-0.947,0.595-1.518,0.862c-0.496,0.234-1.045,0.446-1.724,0.666
				l-0.324,0.11c-0.403,0.14-0.902,0.312-1.459,0.417c-0.305,0.057-0.62,0.086-0.964,0.086c-0.207,0-0.415-0.01-0.621-0.024
				c-0.09-0.005-0.182-0.012-0.272-0.012c-0.117,0.005-0.229,0.026-0.341,0.041C947.631,65.065,947.24,65.121,946.784,65.121"/>
			<defs>
				<filter id="Adobe_OpacityMaskFilter_1_" filterUnits="userSpaceOnUse" x="932.053" y="34.667" width="30.519" height="30.462">
					
						<feColorMatrix  type="matrix" values="-1 0 0 0 1  0 -1 0 0 1  0 0 -1 0 1  0 0 0 1 0" color-interpolation-filters="sRGB" result="source"/>
				</filter>
			</defs>
			<mask maskUnits="userSpaceOnUse" x="932.053" y="34.667" width="30.519" height="30.462" id="SVGID_29_">
				<g style="filter:url(#Adobe_OpacityMaskFilter_1_);">
					<g style="enable-background:new    ;">
						<g>
							<defs>
								<rect id="SVGID_30_" x="930.737" y="33.292" width="33.143" height="33.143"/>
							</defs>
							<clipPath id="SVGID_31_" style="clip-path:url(#SVGID_27_);">
								<use xlink:href="#SVGID_30_"  style="overflow:visible;"/>
							</clipPath>
							<g transform="matrix(1 0 0 1 -6.103516e-005 0)" style="clip-path:url(#SVGID_31_);">
								
									<image style="overflow:visible;" width="212" height="212" xlink:href="EC6418E5-2.html"  transform="matrix(0.1563 0 0 0.1563 930.7371 33.2924)">
								</image>
							</g>
						</g>
					</g>
				</g>
			</mask>
			<g style="opacity:0.7;clip-path:url(#SVGID_27_);mask:url(#SVGID_29_);">
				<g>
					<defs>
						<rect id="SVGID_32_" x="932.053" y="34.667" width="30.519" height="30.462"/>
					</defs>
					<clipPath id="SVGID_33_">
						<use xlink:href="#SVGID_32_"  style="overflow:visible;"/>
					</clipPath>
					<path style="clip-path:url(#SVGID_33_);fill:#A29F9D;" d="M946.784,65.121c-0.119,0-0.239-0.003-0.356-0.012
						c-0.652-0.046-1.27-0.127-1.847-0.243c-0.69-0.139-1.218-0.427-1.568-0.614c-0.067-0.036-0.136-0.076-0.205-0.105
						c-0.528-0.177-0.976-0.451-1.299-0.652c-0.024-0.014-0.047-0.028-0.067-0.041c-0.446-0.045-1.22-0.138-1.983-0.62
						c-0.461-0.292-0.824-0.616-1.117-0.876c-0.1-0.089-0.2-0.179-0.303-0.263c-0.38-0.306-0.878-0.718-1.349-1.191
						c-0.394-0.392-0.783-0.831-1.191-1.336c-0.079-0.098-0.167-0.189-0.255-0.286c-0.267-0.287-0.601-0.647-0.9-1.119
						c-0.435-0.694-0.561-1.375-0.632-1.802c-0.258-0.332-0.647-0.831-0.885-1.551c-0.189-0.571-0.248-1.096-0.291-1.482
						c-0.014-0.113-0.022-0.227-0.045-0.336c-0.133-0.687-0.074-1.274-0.031-1.668c-0.182-0.422-0.46-1.134-0.401-2.017
						c0.034-0.508,0.089-1.177,0.224-1.855c0.165-0.831,0.573-1.43,0.819-1.786c0.012-0.019,0.024-0.038,0.038-0.053
						c0.019-0.067,0.038-0.134,0.055-0.2c0.105-0.38,0.236-0.855,0.484-1.37c0.014-0.04,0.033-0.119,0.057-0.196
						c0.112-0.372,0.281-0.931,0.642-1.501c0.334-0.527,0.721-0.897,1.003-1.167c0.069-0.067,0.141-0.129,0.203-0.201
						c0.014-0.024,0.05-0.095,0.091-0.165c0.189-0.332,0.477-0.833,0.945-1.299c0.448-0.449,0.91-0.728,1.246-0.933
						c0.079-0.048,0.16-0.093,0.231-0.145c0.417-0.336,0.845-0.594,1.189-0.8c0.102-0.062,0.205-0.122,0.303-0.188
						c0.485-0.305,0.94-0.518,1.342-0.706l0.468-0.224c0.425-0.207,0.905-0.439,1.466-0.628c0.528-0.179,1.108-0.332,1.764-0.466
						c0.124-0.026,0.246-0.057,0.367-0.084c0.392-0.095,0.883-0.212,1.446-0.255c0.108-0.007,0.222-0.01,0.334-0.01
						c0.54,0,0.986,0.093,1.313,0.162c0.076,0.016,0.151,0.036,0.229,0.046c0.065-0.003,0.155-0.01,0.244-0.015
						c0.201-0.014,0.404-0.024,0.606-0.024c0.337,0,0.649,0.028,0.948,0.083c0.644,0.117,1.138,0.348,1.497,0.516
						c0.065,0.029,0.129,0.064,0.195,0.091c0.05,0.007,0.102,0.01,0.151,0.016c0.404,0.05,1.017,0.12,1.681,0.428
						c0.504,0.234,0.922,0.509,1.262,0.733c0.103,0.069,0.208,0.138,0.313,0.203c0.482,0.299,0.84,0.628,1.126,0.89
						c0.064,0.059,0.126,0.115,0.191,0.174c0.031,0.012,0.06,0.026,0.093,0.041c0.368,0.169,0.984,0.451,1.542,1.009
						c0.406,0.404,0.699,0.828,0.91,1.137c0.071,0.103,0.138,0.205,0.213,0.298c0.079,0.101,0.169,0.201,0.258,0.303
						c0.26,0.296,0.587,0.664,0.878,1.132c0.33,0.53,0.504,1.04,0.63,1.411c0.033,0.098,0.06,0.195,0.103,0.284
						c0.029,0.055,0.079,0.126,0.129,0.198c0.212,0.324,0.532,0.812,0.737,1.448c0.182,0.559,0.244,1.086,0.289,1.471
						c0.016,0.122,0.028,0.244,0.052,0.363c0.145,0.771,0.029,1.437-0.038,1.833c-0.003,0.015-0.005,0.029-0.009,0.043
						c0.007,0.019,0.012,0.038,0.017,0.057c0.11,0.401,0.274,1.008,0.222,1.761c-0.047,0.695-0.255,1.253-0.394,1.623
						c-0.005,0.016-0.012,0.031-0.017,0.048c0.047,0.446,0.117,1.174-0.153,1.995c-0.177,0.535-0.411,0.978-0.601,1.332
						c-0.062,0.117-0.124,0.232-0.179,0.351l-0.046,0.096c-0.22,0.468-0.468,0.995-0.805,1.533l-0.169,0.272
						c-0.219,0.363-0.492,0.814-0.845,1.255c-0.52,0.647-1.158,0.983-1.573,1.177c-0.208,0.337-0.542,0.84-1.081,1.272l-0.268,0.219
						c-0.337,0.279-0.718,0.594-1.182,0.884l-0.077,0.047c-0.444,0.279-0.947,0.595-1.518,0.862
						c-0.496,0.234-1.045,0.446-1.724,0.666l-0.324,0.11c-0.403,0.14-0.902,0.312-1.459,0.417c-0.305,0.057-0.62,0.086-0.964,0.086
						c-0.207,0-0.415-0.01-0.621-0.024c-0.09-0.005-0.182-0.012-0.272-0.012c-0.117,0.005-0.229,0.026-0.341,0.041
						C947.631,65.065,947.24,65.121,946.784,65.121"/>
				</g>
			</g>
			<g style="clip-path:url(#SVGID_27_);">
				<g>
					<defs>
						<rect id="SVGID_34_" x="932.053" y="34.667" width="30.519" height="30.462"/>
					</defs>
					<clipPath id="SVGID_35_">
						<use xlink:href="#SVGID_34_"  style="overflow:visible;"/>
					</clipPath>
					<g style="clip-path:url(#SVGID_35_);">
						<defs>
							<path id="SVGID_36_" d="M946.785,65.122c-0.12,0-0.239-0.004-0.356-0.012c-0.652-0.048-1.272-0.127-1.848-0.244
								c-0.688-0.139-1.219-0.425-1.568-0.613c-0.067-0.038-0.134-0.076-0.203-0.107c-0.528-0.176-0.976-0.449-1.301-0.652
								c-0.022-0.012-0.045-0.026-0.067-0.039c-0.446-0.045-1.22-0.138-1.981-0.62c-0.463-0.293-0.826-0.616-1.119-0.876
								c-0.098-0.089-0.2-0.181-0.301-0.265c-0.38-0.305-0.878-0.718-1.349-1.189c-0.394-0.392-0.785-0.831-1.191-1.336
								c-0.079-0.098-0.169-0.191-0.255-0.286c-0.268-0.287-0.601-0.647-0.9-1.12c-0.437-0.692-0.561-1.375-0.632-1.802
								c-0.258-0.33-0.647-0.83-0.886-1.549c-0.188-0.571-0.246-1.098-0.291-1.482c-0.012-0.115-0.021-0.227-0.043-0.337
								c-0.133-0.685-0.074-1.272-0.033-1.666c-0.181-0.423-0.458-1.136-0.399-2.017c0.034-0.508,0.089-1.177,0.224-1.855
								c0.165-0.833,0.573-1.43,0.819-1.786c0.01-0.019,0.024-0.038,0.038-0.055c0.019-0.067,0.036-0.133,0.055-0.198
								c0.105-0.382,0.236-0.855,0.484-1.372c0.012-0.038,0.033-0.117,0.057-0.195c0.112-0.372,0.281-0.931,0.642-1.501
								c0.334-0.528,0.721-0.898,1.003-1.167c0.069-0.067,0.141-0.129,0.203-0.201c0.014-0.026,0.05-0.096,0.091-0.167
								c0.189-0.33,0.477-0.831,0.943-1.299c0.449-0.447,0.912-0.728,1.248-0.933c0.079-0.046,0.16-0.091,0.231-0.145
								c0.416-0.334,0.845-0.592,1.188-0.799c0.103-0.064,0.205-0.124,0.305-0.188c0.484-0.306,0.94-0.52,1.341-0.706l0.47-0.224
								c0.425-0.207,0.905-0.441,1.465-0.628c0.53-0.181,1.11-0.334,1.766-0.468c0.124-0.024,0.244-0.055,0.367-0.083
								c0.392-0.095,0.881-0.213,1.446-0.255c0.108-0.009,0.22-0.012,0.334-0.012c0.539,0,0.986,0.095,1.313,0.163
								c0.074,0.016,0.15,0.034,0.227,0.045c0.065-0.003,0.157-0.01,0.246-0.014c0.201-0.014,0.403-0.024,0.606-0.024
								c0.337,0,0.647,0.026,0.948,0.083c0.642,0.117,1.136,0.348,1.496,0.516c0.065,0.029,0.131,0.064,0.196,0.09
								c0.05,0.007,0.1,0.012,0.151,0.017c0.404,0.048,1.015,0.119,1.681,0.429c0.504,0.234,0.922,0.509,1.262,0.733
								c0.103,0.069,0.208,0.138,0.313,0.203c0.48,0.299,0.838,0.626,1.124,0.89c0.065,0.059,0.127,0.115,0.193,0.172
								c0.029,0.014,0.06,0.028,0.093,0.043c0.367,0.167,0.984,0.449,1.542,1.009c0.404,0.404,0.697,0.828,0.909,1.138
								c0.071,0.101,0.138,0.205,0.213,0.298c0.081,0.101,0.17,0.201,0.26,0.301c0.26,0.296,0.587,0.666,0.876,1.132
								c0.332,0.532,0.504,1.041,0.632,1.413c0.033,0.096,0.06,0.194,0.102,0.284c0.031,0.055,0.081,0.126,0.129,0.198
								c0.214,0.324,0.534,0.812,0.738,1.448c0.182,0.559,0.244,1.086,0.289,1.47c0.016,0.124,0.028,0.246,0.05,0.363
								c0.145,0.773,0.031,1.437-0.036,1.835c-0.003,0.016-0.005,0.028-0.009,0.043c0.007,0.019,0.012,0.038,0.017,0.055
								c0.108,0.403,0.274,1.008,0.222,1.762c-0.048,0.695-0.256,1.251-0.394,1.621c-0.007,0.017-0.014,0.033-0.019,0.05
								c0.048,0.444,0.119,1.172-0.151,1.995c-0.177,0.534-0.413,0.978-0.601,1.332c-0.062,0.115-0.124,0.232-0.179,0.349
								l-0.046,0.098c-0.22,0.466-0.468,0.995-0.807,1.533l-0.167,0.272c-0.219,0.363-0.492,0.812-0.845,1.253
								c-0.52,0.647-1.158,0.984-1.575,1.179c-0.208,0.337-0.54,0.84-1.079,1.272l-0.27,0.218c-0.336,0.279-0.718,0.594-1.181,0.885
								l-0.078,0.046c-0.444,0.279-0.947,0.595-1.518,0.862c-0.496,0.234-1.045,0.446-1.724,0.666l-0.324,0.108
								c-0.403,0.139-0.902,0.313-1.459,0.417c-0.305,0.058-0.62,0.086-0.966,0.086c-0.205,0-0.413-0.01-0.62-0.022
								c-0.091-0.005-0.182-0.012-0.272-0.012c-0.119,0.005-0.229,0.024-0.341,0.041C947.632,65.064,947.239,65.122,946.785,65.122"
								/>
						</defs>
						<clipPath id="SVGID_37_">
							<use xlink:href="#SVGID_36_"  style="overflow:visible;"/>
						</clipPath>
						
							<linearGradient id="SVGID_38_" gradientUnits="userSpaceOnUse" x1="595.2799" y1="818.3494" x2="597.001" y2="818.3494" gradientTransform="matrix(0 8.6074 8.6074 0 -6096.5142 -5085.5938)">
							<stop  offset="0" style="stop-color:#F1C3CA"/>
							<stop  offset="1" style="stop-color:#D85272"/>
						</linearGradient>
						<rect x="932.003" y="34.675" style="clip-path:url(#SVGID_37_);fill:url(#SVGID_38_);" width="30.61" height="30.447"/>
					</g>
					<g style="clip-path:url(#SVGID_35_);">
						<defs>
							<path id="SVGID_39_" d="M946.785,65.122c-0.12,0-0.239-0.004-0.356-0.012c-0.652-0.048-1.272-0.127-1.848-0.244
								c-0.688-0.139-1.219-0.425-1.568-0.613c-0.067-0.038-0.134-0.076-0.203-0.107c-0.528-0.176-0.976-0.449-1.301-0.652
								c-0.022-0.012-0.045-0.026-0.067-0.039c-0.446-0.045-1.22-0.138-1.981-0.62c-0.463-0.293-0.826-0.616-1.119-0.876
								c-0.098-0.089-0.2-0.181-0.301-0.265c-0.38-0.305-0.878-0.718-1.349-1.189c-0.394-0.392-0.785-0.831-1.191-1.336
								c-0.079-0.098-0.169-0.191-0.255-0.286c-0.268-0.287-0.601-0.647-0.9-1.12c-0.437-0.692-0.561-1.375-0.632-1.802
								c-0.258-0.33-0.647-0.83-0.886-1.549c-0.188-0.571-0.246-1.098-0.291-1.482c-0.012-0.115-0.021-0.227-0.043-0.337
								c-0.133-0.685-0.074-1.272-0.033-1.666c-0.181-0.423-0.458-1.136-0.399-2.017c0.034-0.508,0.089-1.177,0.224-1.855
								c0.165-0.833,0.573-1.43,0.819-1.786c0.01-0.019,0.024-0.038,0.038-0.055c0.019-0.067,0.036-0.133,0.055-0.198
								c0.105-0.382,0.236-0.855,0.484-1.372c0.012-0.038,0.033-0.117,0.057-0.195c0.112-0.372,0.281-0.931,0.642-1.501
								c0.334-0.528,0.721-0.898,1.003-1.167c0.069-0.067,0.141-0.129,0.203-0.201c0.014-0.026,0.05-0.096,0.091-0.167
								c0.189-0.33,0.477-0.831,0.943-1.299c0.449-0.447,0.912-0.728,1.248-0.933c0.079-0.046,0.16-0.091,0.231-0.145
								c0.416-0.334,0.845-0.592,1.188-0.799c0.103-0.064,0.205-0.124,0.305-0.188c0.484-0.306,0.94-0.52,1.341-0.706l0.47-0.224
								c0.425-0.207,0.905-0.441,1.465-0.628c0.53-0.181,1.11-0.334,1.766-0.468c0.124-0.024,0.244-0.055,0.367-0.083
								c0.392-0.095,0.881-0.213,1.446-0.255c0.108-0.009,0.22-0.012,0.334-0.012c0.539,0,0.986,0.095,1.313,0.163
								c0.074,0.016,0.15,0.034,0.227,0.045c0.065-0.003,0.157-0.01,0.246-0.014c0.201-0.014,0.403-0.024,0.606-0.024
								c0.337,0,0.647,0.026,0.948,0.083c0.642,0.117,1.136,0.348,1.496,0.516c0.065,0.029,0.131,0.064,0.196,0.09
								c0.05,0.007,0.1,0.012,0.151,0.017c0.404,0.048,1.015,0.119,1.681,0.429c0.504,0.234,0.922,0.509,1.262,0.733
								c0.103,0.069,0.208,0.138,0.313,0.203c0.48,0.299,0.838,0.626,1.124,0.89c0.065,0.059,0.127,0.115,0.193,0.172
								c0.029,0.014,0.06,0.028,0.093,0.043c0.367,0.167,0.984,0.449,1.542,1.009c0.404,0.404,0.697,0.828,0.909,1.138
								c0.071,0.101,0.138,0.205,0.213,0.298c0.081,0.101,0.17,0.201,0.26,0.301c0.26,0.296,0.587,0.666,0.876,1.132
								c0.332,0.532,0.504,1.041,0.632,1.413c0.033,0.096,0.06,0.194,0.102,0.284c0.031,0.055,0.081,0.126,0.129,0.198
								c0.214,0.324,0.534,0.812,0.738,1.448c0.182,0.559,0.244,1.086,0.289,1.47c0.016,0.124,0.028,0.246,0.05,0.363
								c0.145,0.773,0.031,1.437-0.036,1.835c-0.003,0.016-0.005,0.028-0.009,0.043c0.007,0.019,0.012,0.038,0.017,0.055
								c0.108,0.403,0.274,1.008,0.222,1.762c-0.048,0.695-0.256,1.251-0.394,1.621c-0.007,0.017-0.014,0.033-0.019,0.05
								c0.048,0.444,0.119,1.172-0.151,1.995c-0.177,0.534-0.413,0.978-0.601,1.332c-0.062,0.115-0.124,0.232-0.179,0.349
								l-0.046,0.098c-0.22,0.466-0.468,0.995-0.807,1.533l-0.167,0.272c-0.219,0.363-0.492,0.812-0.845,1.253
								c-0.52,0.647-1.158,0.984-1.575,1.179c-0.208,0.337-0.54,0.84-1.079,1.272l-0.27,0.218c-0.336,0.279-0.718,0.594-1.181,0.885
								l-0.078,0.046c-0.444,0.279-0.947,0.595-1.518,0.862c-0.496,0.234-1.045,0.446-1.724,0.666l-0.324,0.108
								c-0.403,0.139-0.902,0.313-1.459,0.417c-0.305,0.058-0.62,0.086-0.966,0.086c-0.205,0-0.413-0.01-0.62-0.022
								c-0.091-0.005-0.182-0.012-0.272-0.012c-0.119,0.005-0.229,0.024-0.341,0.041C947.632,65.064,947.239,65.122,946.785,65.122"
								/>
						</defs>
						<clipPath id="SVGID_40_">
							<use xlink:href="#SVGID_39_"  style="overflow:visible;"/>
						</clipPath>
						
							<linearGradient id="SVGID_41_" gradientUnits="userSpaceOnUse" x1="595.2799" y1="818.3494" x2="597.001" y2="818.3494" gradientTransform="matrix(0 8.6074 8.6074 0 -6096.5142 -5085.5938)">
							<stop  offset="0" style="stop-color:#F1C3CA"/>
							<stop  offset="1" style="stop-color:#D85272"/>
						</linearGradient>
						<rect x="932.003" y="34.675" style="clip-path:url(#SVGID_40_);fill:url(#SVGID_41_);" width="30.61" height="30.447"/>
					</g>
					<g style="clip-path:url(#SVGID_35_);">
						<defs>
							<path id="SVGID_42_" d="M956.269,58.759c-4.926,4.925-12.908,4.925-17.832,0c-4.922-4.922-4.922-12.906,0-17.83
								c4.924-4.922,12.906-4.922,17.83,0.002C961.192,45.853,961.192,53.837,956.269,58.759"/>
						</defs>
						<clipPath id="SVGID_43_">
							<use xlink:href="#SVGID_42_"  style="overflow:visible;"/>
						</clipPath>
						
							<linearGradient id="SVGID_44_" gradientUnits="userSpaceOnUse" x1="595.2799" y1="818.352" x2="597.001" y2="818.352" gradientTransform="matrix(0 8.6074 8.6074 0 -6096.4902 -5085.5938)">
							<stop  offset="0" style="stop-color:#F1C3CA"/>
							<stop  offset="1" style="stop-color:#D85272"/>
						</linearGradient>
						<rect x="933.516" y="36.007" style="clip-path:url(#SVGID_43_);fill:url(#SVGID_44_);" width="27.676" height="27.678"/>
					</g>
				</g>
			</g>
		</g>
	</g>
	<g>
		<g>
			<defs>
				<rect id="SVGID_45_" x="947.201" y="19.091" width="30.736" height="31.099"/>
			</defs>
			<clipPath id="SVGID_46_">
				<use xlink:href="#SVGID_45_"  style="overflow:visible;"/>
			</clipPath>
			<pattern  id="SVGID_47_" xlink:href="#Unnamed_Pattern_3" patternTransform="matrix(1.721 0 0 -1.721 6132.917 6935.0405)">
			</pattern>
			<path style="clip-path:url(#SVGID_46_);fill:url(#SVGID_47_);" d="M962.496,50.183c-0.781-0.015-1.398-0.265-1.764-0.416
				c-0.021-0.007-0.04-0.016-0.06-0.024c-0.071-0.007-0.139-0.01-0.208-0.015c-0.327-0.022-0.728-0.052-1.184-0.151l-0.286,0.002
				c-0.42,0-0.983-0.028-1.604-0.257c-0.725-0.267-1.222-0.695-1.52-0.953c-0.021-0.017-0.043-0.038-0.065-0.057l-0.176-0.084
				c-0.342-0.163-0.771-0.368-1.213-0.652c-0.535-0.344-0.976-0.657-1.385-0.99c-0.067-0.052-0.145-0.096-0.222-0.145
				c-0.31-0.196-0.735-0.466-1.151-0.883c-0.582-0.582-0.845-1.219-1.002-1.599l-0.005-0.01c-0.031-0.034-0.067-0.067-0.098-0.101
				c-0.248-0.251-0.585-0.597-0.891-1.071c-0.294-0.458-0.527-0.897-0.737-1.313l-0.034-0.036c-0.286-0.305-0.766-0.814-1.053-1.59
				c-0.226-0.613-0.399-1.158-0.525-1.664c-0.219-0.876-0.059-1.638,0.029-2.053c-0.05-0.441-0.079-0.897-0.089-1.418
				c-0.012-0.526,0.045-0.981,0.088-1.349c0.015-0.117,0.029-0.232,0.041-0.351l0.024-0.33c0.022-0.308,0.05-0.678,0.117-1.086
				c-0.058-0.42-0.165-1.198,0.122-2.067c0.201-0.601,0.504-1.067,0.704-1.375c0.047-0.067,0.093-0.134,0.131-0.205
				c0.022-0.052,0.046-0.138,0.074-0.222c0.12-0.361,0.284-0.857,0.609-1.375c0.463-0.747,1.096-1.151,1.494-1.384
				c0.194-0.313,0.463-0.738,0.888-1.162c0.38-0.384,0.762-0.661,1.069-0.883c0.026-0.019,0.053-0.039,0.081-0.058
				c0.229-0.377,0.642-1.041,1.411-1.523c0.458-0.286,0.9-0.472,1.258-0.62c0.119-0.05,0.236-0.098,0.348-0.151
				c0.704-0.339,1.365-0.386,1.804-0.401c0.334-0.215,0.85-0.532,1.532-0.694l0.126-0.029c0.472-0.113,1.005-0.241,1.589-0.317
				c0.174-0.021,0.344-0.031,0.518-0.031c0.523,0,0.962,0.096,1.253,0.162c0.038,0.009,0.074,0.017,0.114,0.026l0.157-0.002
				c0.454,0,0.926,0.022,1.442,0.067c0.048,0.003,0.098,0.005,0.151,0.005c0.021,0,0.289-0.002,0.289-0.002
				c0.387,0,0.814,0.014,1.294,0.11l0.244,0.047c0.437,0.084,0.931,0.179,1.465,0.349c0.089,0.026,0.182,0.04,0.275,0.057
				c0.375,0.074,0.886,0.175,1.446,0.427c0.7,0.317,1.172,0.78,1.453,1.059c0.031,0.028,0.06,0.057,0.088,0.084
				c0.42,0.265,0.75,0.544,1.019,0.773c0.076,0.064,0.153,0.129,0.232,0.195c0.043,0.024,0.088,0.045,0.134,0.067
				c0.346,0.176,0.864,0.441,1.365,0.928c0.048,0.036,0.102,0.071,0.155,0.107c0.327,0.225,0.823,0.566,1.256,1.119
				c0.491,0.626,0.688,1.28,0.807,1.671c0.012,0.036,0.022,0.072,0.033,0.108c0.281,0.501,0.423,0.976,0.518,1.298
				c0.01,0.033,0.019,0.065,0.029,0.098c0.003,0.003,0.007,0.007,0.009,0.009c0.267,0.318,0.716,0.85,0.964,1.637
				c0.225,0.716,0.205,1.361,0.193,1.745c0,0.043-0.003,0.083-0.003,0.124l0.028,0.146c0.088,0.427,0.186,0.912,0.231,1.465
				c0.041,0.523,0.014,0.983-0.01,1.353c-0.009,0.126-0.017,0.25-0.021,0.375c-0.014,0.613-0.057,1.158-0.133,1.714
				c-0.072,0.549-0.174,1.086-0.318,1.685l-0.021,0.081c-0.098,0.397-0.205,0.84-0.358,1.311v0.007
				c-0.003,0.451-0.005,1.203-0.401,2.017c-0.277,0.57-0.625,0.976-0.876,1.272c-0.055,0.064-0.114,0.126-0.162,0.194
				c-0.277,0.442-0.594,0.79-0.849,1.071c-0.081,0.088-0.165,0.175-0.241,0.272c-0.36,0.451-0.74,0.878-1.165,1.301
				c-0.052,0.055-0.102,0.127-0.155,0.196c-0.229,0.294-0.544,0.697-1.014,1.074l-0.195,0.155c-0.346,0.279-0.737,0.596-1.201,0.886
				c-0.692,0.432-1.365,0.544-1.797,0.604c-0.306,0.215-0.768,0.539-1.403,0.754c-0.076,0.029-0.153,0.071-0.234,0.109
				c-0.339,0.163-0.807,0.387-1.401,0.513c-0.484,0.103-0.921,0.117-1.282,0.117h-0.354c-0.033,0-0.067,0-0.1,0.003
				c-0.122,0.012-0.244,0.029-0.363,0.046c-0.344,0.048-0.771,0.108-1.258,0.108H962.496z"/>
			<defs>
				<filter id="Adobe_OpacityMaskFilter_2_" filterUnits="userSpaceOnUse" x="947.201" y="19.088" width="30.736" height="31.103">
					
						<feColorMatrix  type="matrix" values="-1 0 0 0 1  0 -1 0 0 1  0 0 -1 0 1  0 0 0 1 0" color-interpolation-filters="sRGB" result="source"/>
				</filter>
			</defs>
			<mask maskUnits="userSpaceOnUse" x="947.201" y="19.088" width="30.736" height="31.103" id="SVGID_48_">
				<g style="filter:url(#Adobe_OpacityMaskFilter_2_);">
					<g style="enable-background:new    ;">
						<g>
							<defs>
								<rect id="SVGID_49_" x="945.745" y="17.659" width="33.612" height="33.924"/>
							</defs>
							<clipPath id="SVGID_50_" style="clip-path:url(#SVGID_46_);">
								<use xlink:href="#SVGID_49_"  style="overflow:visible;"/>
							</clipPath>
							<g transform="matrix(1 0 0 1 0 0)" style="clip-path:url(#SVGID_50_);">
								
									<image style="overflow:visible;" width="215" height="217" xlink:href="EC6418E3-2.html"  transform="matrix(0.1563 0 0 0.1563 945.7448 17.6585)">
								</image>
							</g>
						</g>
					</g>
				</g>
			</mask>
			<g style="opacity:0.7;clip-path:url(#SVGID_46_);mask:url(#SVGID_48_);">
				<g>
					<defs>
						<rect id="SVGID_51_" x="947.201" y="19.091" width="30.736" height="31.099"/>
					</defs>
					<clipPath id="SVGID_52_">
						<use xlink:href="#SVGID_51_"  style="overflow:visible;"/>
					</clipPath>
					<path style="clip-path:url(#SVGID_52_);fill:#A29F9D;" d="M962.496,50.183c-0.781-0.015-1.398-0.265-1.764-0.416
						c-0.021-0.007-0.04-0.016-0.06-0.024c-0.071-0.007-0.139-0.01-0.208-0.015c-0.327-0.022-0.728-0.052-1.184-0.151l-0.286,0.002
						c-0.42,0-0.983-0.028-1.604-0.257c-0.725-0.267-1.222-0.695-1.52-0.953c-0.021-0.017-0.043-0.038-0.065-0.057l-0.176-0.084
						c-0.342-0.163-0.771-0.368-1.213-0.652c-0.535-0.344-0.976-0.657-1.385-0.99c-0.067-0.052-0.145-0.096-0.222-0.145
						c-0.31-0.196-0.735-0.466-1.151-0.883c-0.582-0.582-0.845-1.219-1.002-1.599l-0.005-0.01c-0.031-0.034-0.067-0.067-0.098-0.101
						c-0.248-0.251-0.585-0.597-0.891-1.071c-0.294-0.458-0.527-0.897-0.737-1.313l-0.034-0.036
						c-0.286-0.305-0.766-0.814-1.053-1.59c-0.226-0.613-0.399-1.158-0.525-1.664c-0.219-0.876-0.059-1.638,0.029-2.053
						c-0.05-0.441-0.079-0.897-0.089-1.418c-0.012-0.526,0.045-0.981,0.088-1.349c0.015-0.117,0.029-0.232,0.041-0.351l0.024-0.33
						c0.022-0.308,0.05-0.678,0.117-1.086c-0.058-0.42-0.165-1.198,0.122-2.067c0.201-0.601,0.504-1.067,0.704-1.375
						c0.047-0.067,0.093-0.134,0.131-0.205c0.022-0.052,0.046-0.138,0.074-0.222c0.12-0.361,0.284-0.857,0.609-1.375
						c0.463-0.747,1.096-1.151,1.494-1.384c0.194-0.313,0.463-0.738,0.888-1.162c0.38-0.384,0.762-0.661,1.069-0.883
						c0.026-0.019,0.053-0.039,0.081-0.058c0.229-0.377,0.642-1.041,1.411-1.523c0.458-0.286,0.9-0.472,1.258-0.62
						c0.119-0.05,0.236-0.098,0.348-0.151c0.704-0.339,1.365-0.386,1.804-0.401c0.334-0.215,0.85-0.532,1.532-0.694l0.126-0.029
						c0.472-0.113,1.005-0.241,1.589-0.317c0.174-0.021,0.344-0.031,0.518-0.031c0.523,0,0.962,0.096,1.253,0.162
						c0.038,0.009,0.074,0.017,0.114,0.026l0.157-0.002c0.454,0,0.926,0.022,1.442,0.067c0.048,0.003,0.098,0.005,0.151,0.005
						c0.021,0,0.289-0.002,0.289-0.002c0.387,0,0.814,0.014,1.294,0.11l0.244,0.047c0.437,0.084,0.931,0.179,1.465,0.349
						c0.089,0.026,0.182,0.04,0.275,0.057c0.375,0.074,0.886,0.175,1.446,0.427c0.7,0.317,1.172,0.78,1.453,1.059
						c0.031,0.028,0.06,0.057,0.088,0.084c0.42,0.265,0.75,0.544,1.019,0.773c0.076,0.064,0.153,0.129,0.232,0.195
						c0.043,0.024,0.088,0.045,0.134,0.067c0.346,0.176,0.864,0.441,1.365,0.928c0.048,0.036,0.102,0.071,0.155,0.107
						c0.327,0.225,0.823,0.566,1.256,1.119c0.491,0.626,0.688,1.28,0.807,1.671c0.012,0.036,0.022,0.072,0.033,0.108
						c0.281,0.501,0.423,0.976,0.518,1.298c0.01,0.033,0.019,0.065,0.029,0.098c0.003,0.003,0.007,0.007,0.009,0.009
						c0.267,0.318,0.716,0.85,0.964,1.637c0.225,0.716,0.205,1.361,0.193,1.745c0,0.043-0.003,0.083-0.003,0.124l0.028,0.146
						c0.088,0.427,0.186,0.912,0.231,1.465c0.041,0.523,0.014,0.983-0.01,1.353c-0.009,0.126-0.017,0.25-0.021,0.375
						c-0.014,0.613-0.057,1.158-0.133,1.714c-0.072,0.549-0.174,1.086-0.318,1.685l-0.021,0.081
						c-0.098,0.397-0.205,0.84-0.358,1.311v0.007c-0.003,0.451-0.005,1.203-0.401,2.017c-0.277,0.57-0.625,0.976-0.876,1.272
						c-0.055,0.064-0.114,0.126-0.162,0.194c-0.277,0.442-0.594,0.79-0.849,1.071c-0.081,0.088-0.165,0.175-0.241,0.272
						c-0.36,0.451-0.74,0.878-1.165,1.301c-0.052,0.055-0.102,0.127-0.155,0.196c-0.229,0.294-0.544,0.697-1.014,1.074l-0.195,0.155
						c-0.346,0.279-0.737,0.596-1.201,0.886c-0.692,0.432-1.365,0.544-1.797,0.604c-0.306,0.215-0.768,0.539-1.403,0.754
						c-0.076,0.029-0.153,0.071-0.234,0.109c-0.339,0.163-0.807,0.387-1.401,0.513c-0.484,0.103-0.921,0.117-1.282,0.117h-0.354
						c-0.033,0-0.067,0-0.1,0.003c-0.122,0.012-0.244,0.029-0.363,0.046c-0.344,0.048-0.771,0.108-1.258,0.108H962.496z"/>
				</g>
			</g>
			<g style="clip-path:url(#SVGID_46_);">
				<g>
					<defs>
						<rect id="SVGID_53_" x="947.201" y="19.091" width="30.736" height="31.099"/>
					</defs>
					<clipPath id="SVGID_54_">
						<use xlink:href="#SVGID_53_"  style="overflow:visible;"/>
					</clipPath>
					<g style="clip-path:url(#SVGID_54_);">
						<defs>
							<path id="SVGID_55_" d="M962.496,50.183c-0.781-0.016-1.397-0.265-1.766-0.416c-0.019-0.007-0.038-0.016-0.059-0.024
								c-0.071-0.007-0.139-0.01-0.208-0.016c-0.327-0.022-0.728-0.051-1.184-0.151l-0.286,0.002c-0.422,0-0.984-0.028-1.604-0.257
								c-0.725-0.267-1.222-0.695-1.52-0.953c-0.022-0.017-0.043-0.038-0.065-0.057l-0.177-0.084
								c-0.342-0.163-0.771-0.368-1.213-0.652c-0.534-0.344-0.974-0.657-1.384-0.99c-0.067-0.052-0.145-0.096-0.222-0.145
								c-0.31-0.196-0.735-0.466-1.151-0.885c-0.582-0.58-0.845-1.219-1.002-1.597l-0.005-0.01c-0.033-0.034-0.067-0.067-0.1-0.102
								c-0.246-0.251-0.585-0.597-0.89-1.07c-0.294-0.458-0.527-0.897-0.737-1.313l-0.036-0.036
								c-0.286-0.305-0.764-0.814-1.052-1.59c-0.227-0.613-0.399-1.158-0.527-1.664c-0.219-0.876-0.059-1.638,0.031-2.053
								c-0.05-0.441-0.079-0.897-0.091-1.418c-0.012-0.527,0.046-0.981,0.089-1.349c0.016-0.117,0.029-0.232,0.04-0.351l0.026-0.33
								c0.022-0.308,0.048-0.678,0.115-1.086c-0.058-0.42-0.164-1.198,0.124-2.067c0.201-0.601,0.504-1.067,0.704-1.375
								c0.045-0.067,0.093-0.134,0.131-0.205c0.022-0.051,0.046-0.138,0.074-0.222c0.119-0.362,0.284-0.857,0.609-1.377
								c0.461-0.745,1.095-1.15,1.494-1.382c0.194-0.313,0.461-0.738,0.886-1.162c0.382-0.384,0.764-0.661,1.07-0.883
								c0.026-0.019,0.053-0.04,0.079-0.059c0.229-0.377,0.642-1.041,1.413-1.523c0.456-0.286,0.9-0.471,1.258-0.62
								c0.117-0.05,0.236-0.098,0.346-0.151c0.704-0.339,1.365-0.387,1.805-0.401c0.332-0.215,0.849-0.532,1.532-0.694l0.126-0.029
								c0.47-0.114,1.005-0.241,1.589-0.317c0.172-0.022,0.344-0.031,0.518-0.031c0.521,0,0.96,0.096,1.251,0.162
								c0.04,0.009,0.076,0.017,0.115,0.026l0.155-0.002c0.456,0,0.928,0.022,1.442,0.067c0.05,0.004,0.1,0.005,0.151,0.005
								c0.022,0,0.291-0.002,0.291-0.002c0.387,0,0.814,0.014,1.294,0.11l0.244,0.046c0.437,0.084,0.931,0.179,1.463,0.349
								c0.091,0.026,0.184,0.04,0.275,0.057c0.375,0.074,0.888,0.175,1.446,0.427c0.702,0.317,1.174,0.78,1.454,1.057
								c0.031,0.029,0.058,0.059,0.088,0.086c0.42,0.265,0.749,0.544,1.019,0.773c0.076,0.064,0.151,0.129,0.231,0.195
								c0.045,0.022,0.09,0.045,0.134,0.067c0.348,0.176,0.864,0.441,1.365,0.928c0.05,0.036,0.103,0.07,0.155,0.107
								c0.329,0.226,0.824,0.566,1.258,1.119c0.49,0.626,0.688,1.28,0.807,1.671c0.01,0.036,0.021,0.072,0.033,0.108
								c0.281,0.501,0.422,0.976,0.518,1.298c0.01,0.031,0.019,0.065,0.028,0.098c0.003,0.004,0.007,0.005,0.009,0.009
								c0.268,0.318,0.716,0.85,0.965,1.637c0.225,0.716,0.205,1.361,0.191,1.745c0,0.043-0.003,0.083-0.003,0.124l0.029,0.146
								c0.088,0.427,0.184,0.912,0.231,1.465c0.041,0.523,0.012,0.983-0.01,1.353c-0.009,0.124-0.017,0.25-0.021,0.375
								c-0.016,0.613-0.057,1.158-0.133,1.714c-0.072,0.549-0.176,1.086-0.32,1.685l-0.019,0.081
								c-0.098,0.398-0.207,0.84-0.358,1.312v0.007c-0.003,0.451-0.005,1.203-0.403,2.017c-0.275,0.57-0.623,0.976-0.876,1.272
								c-0.055,0.064-0.112,0.126-0.16,0.195c-0.277,0.442-0.594,0.79-0.849,1.07c-0.081,0.088-0.165,0.176-0.241,0.272
								c-0.36,0.451-0.742,0.878-1.165,1.301c-0.052,0.055-0.102,0.127-0.157,0.196c-0.229,0.294-0.542,0.697-1.014,1.074
								L972,47.043c-0.346,0.279-0.738,0.594-1.201,0.886c-0.692,0.432-1.365,0.544-1.797,0.604
								c-0.308,0.215-0.768,0.539-1.403,0.754c-0.076,0.029-0.153,0.071-0.234,0.108c-0.339,0.163-0.807,0.387-1.403,0.513
								c-0.482,0.103-0.919,0.117-1.282,0.117h-0.353c-0.033,0-0.067,0-0.1,0.003c-0.124,0.012-0.244,0.029-0.363,0.045
								c-0.346,0.05-0.773,0.11-1.258,0.11H962.496z"/>
						</defs>
						<clipPath id="SVGID_56_">
							<use xlink:href="#SVGID_55_"  style="overflow:visible;"/>
						</clipPath>
						
							<linearGradient id="SVGID_57_" gradientUnits="userSpaceOnUse" x1="522.6642" y1="757.4155" x2="524.3853" y2="757.4155" gradientTransform="matrix(12.785 0 0 -12.785 -5733.6577 9718.2119)">
							<stop  offset="0" style="stop-color:#D0D74E"/>
							<stop  offset="1" style="stop-color:#6CAF30"/>
						</linearGradient>
						<rect x="947.091" y="19.088" style="clip-path:url(#SVGID_56_);fill:url(#SVGID_57_);" width="30.867" height="31.096"/>
					</g>
					<g style="clip-path:url(#SVGID_54_);">
						<defs>
							<path id="SVGID_58_" d="M962.496,50.183c-0.781-0.016-1.397-0.265-1.766-0.416c-0.019-0.007-0.038-0.016-0.059-0.024
								c-0.071-0.007-0.139-0.01-0.208-0.016c-0.327-0.022-0.728-0.051-1.184-0.151l-0.286,0.002c-0.422,0-0.984-0.028-1.604-0.257
								c-0.725-0.267-1.222-0.695-1.52-0.953c-0.022-0.017-0.043-0.038-0.065-0.057l-0.177-0.084
								c-0.342-0.163-0.771-0.368-1.213-0.652c-0.534-0.344-0.974-0.657-1.384-0.99c-0.067-0.052-0.145-0.096-0.222-0.145
								c-0.31-0.196-0.735-0.466-1.151-0.885c-0.582-0.58-0.845-1.219-1.002-1.597l-0.005-0.01c-0.033-0.034-0.067-0.067-0.1-0.102
								c-0.246-0.251-0.585-0.597-0.89-1.07c-0.294-0.458-0.527-0.897-0.737-1.313l-0.036-0.036
								c-0.286-0.305-0.764-0.814-1.052-1.59c-0.227-0.613-0.399-1.158-0.527-1.664c-0.219-0.876-0.059-1.638,0.031-2.053
								c-0.05-0.441-0.079-0.897-0.091-1.418c-0.012-0.527,0.046-0.981,0.089-1.349c0.016-0.117,0.029-0.232,0.04-0.351l0.026-0.33
								c0.022-0.308,0.048-0.678,0.115-1.086c-0.058-0.42-0.164-1.198,0.124-2.067c0.201-0.601,0.504-1.067,0.704-1.375
								c0.045-0.067,0.093-0.134,0.131-0.205c0.022-0.051,0.046-0.138,0.074-0.222c0.119-0.362,0.284-0.857,0.609-1.377
								c0.461-0.745,1.095-1.15,1.494-1.382c0.194-0.313,0.461-0.738,0.886-1.162c0.382-0.384,0.764-0.661,1.07-0.883
								c0.026-0.019,0.053-0.04,0.079-0.059c0.229-0.377,0.642-1.041,1.413-1.523c0.456-0.286,0.9-0.471,1.258-0.62
								c0.117-0.05,0.236-0.098,0.346-0.151c0.704-0.339,1.365-0.387,1.805-0.401c0.332-0.215,0.849-0.532,1.532-0.694l0.126-0.029
								c0.47-0.114,1.005-0.241,1.589-0.317c0.172-0.022,0.344-0.031,0.518-0.031c0.521,0,0.96,0.096,1.251,0.162
								c0.04,0.009,0.076,0.017,0.115,0.026l0.155-0.002c0.456,0,0.928,0.022,1.442,0.067c0.05,0.004,0.1,0.005,0.151,0.005
								c0.022,0,0.291-0.002,0.291-0.002c0.387,0,0.814,0.014,1.294,0.11l0.244,0.046c0.437,0.084,0.931,0.179,1.463,0.349
								c0.091,0.026,0.184,0.04,0.275,0.057c0.375,0.074,0.888,0.175,1.446,0.427c0.702,0.317,1.174,0.78,1.454,1.057
								c0.031,0.029,0.058,0.059,0.088,0.086c0.42,0.265,0.749,0.544,1.019,0.773c0.076,0.064,0.151,0.129,0.231,0.195
								c0.045,0.022,0.09,0.045,0.134,0.067c0.348,0.176,0.864,0.441,1.365,0.928c0.05,0.036,0.103,0.07,0.155,0.107
								c0.329,0.226,0.824,0.566,1.258,1.119c0.49,0.626,0.688,1.28,0.807,1.671c0.01,0.036,0.021,0.072,0.033,0.108
								c0.281,0.501,0.422,0.976,0.518,1.298c0.01,0.031,0.019,0.065,0.028,0.098c0.003,0.004,0.007,0.005,0.009,0.009
								c0.268,0.318,0.716,0.85,0.965,1.637c0.225,0.716,0.205,1.361,0.191,1.745c0,0.043-0.003,0.083-0.003,0.124l0.029,0.146
								c0.088,0.427,0.184,0.912,0.231,1.465c0.041,0.523,0.012,0.983-0.01,1.353c-0.009,0.124-0.017,0.25-0.021,0.375
								c-0.016,0.613-0.057,1.158-0.133,1.714c-0.072,0.549-0.176,1.086-0.32,1.685l-0.019,0.081
								c-0.098,0.398-0.207,0.84-0.358,1.312v0.007c-0.003,0.451-0.005,1.203-0.403,2.017c-0.275,0.57-0.623,0.976-0.876,1.272
								c-0.055,0.064-0.112,0.126-0.16,0.195c-0.277,0.442-0.594,0.79-0.849,1.07c-0.081,0.088-0.165,0.176-0.241,0.272
								c-0.36,0.451-0.742,0.878-1.165,1.301c-0.052,0.055-0.102,0.127-0.157,0.196c-0.229,0.294-0.542,0.697-1.014,1.074
								L972,47.043c-0.346,0.279-0.738,0.594-1.201,0.886c-0.692,0.432-1.365,0.544-1.797,0.604
								c-0.308,0.215-0.768,0.539-1.403,0.754c-0.076,0.029-0.153,0.071-0.234,0.108c-0.339,0.163-0.807,0.387-1.403,0.513
								c-0.482,0.103-0.919,0.117-1.282,0.117h-0.353c-0.033,0-0.067,0-0.1,0.003c-0.124,0.012-0.244,0.029-0.363,0.045
								c-0.346,0.05-0.773,0.11-1.258,0.11H962.496z"/>
						</defs>
						<clipPath id="SVGID_59_">
							<use xlink:href="#SVGID_58_"  style="overflow:visible;"/>
						</clipPath>
						
							<linearGradient id="SVGID_60_" gradientUnits="userSpaceOnUse" x1="522.6642" y1="757.4155" x2="524.3853" y2="757.4155" gradientTransform="matrix(12.785 0 0 -12.785 -5733.6577 9718.2119)">
							<stop  offset="0" style="stop-color:#D0D74E"/>
							<stop  offset="1" style="stop-color:#6CAF30"/>
						</linearGradient>
						<rect x="947.091" y="19.088" style="clip-path:url(#SVGID_59_);fill:url(#SVGID_60_);" width="30.867" height="31.096"/>
					</g>
					<g style="clip-path:url(#SVGID_54_);">
						<defs>
							<path id="SVGID_61_" d="M971.396,25.819c4.924,4.922,4.924,12.906,0.002,17.83c-4.926,4.922-12.908,4.922-17.832-0.002
								c-4.924-4.922-4.922-12.904,0-17.828C958.491,20.895,966.472,20.895,971.396,25.819"/>
						</defs>
						<clipPath id="SVGID_62_">
							<use xlink:href="#SVGID_61_"  style="overflow:visible;"/>
						</clipPath>
						
							<linearGradient id="SVGID_63_" gradientUnits="userSpaceOnUse" x1="522.6661" y1="757.4124" x2="524.3872" y2="757.4124" gradientTransform="matrix(12.785 0 0 -12.785 -5733.6577 9718.2686)">
							<stop  offset="0" style="stop-color:#D0D74E"/>
							<stop  offset="1" style="stop-color:#6CAF30"/>
						</linearGradient>
						<rect x="948.642" y="20.895" style="clip-path:url(#SVGID_62_);fill:url(#SVGID_63_);" width="27.678" height="27.676"/>
					</g>
				</g>
			</g>
		</g>
	</g>
	<g>
		<g>
			<defs>
				<rect id="SVGID_64_" x="931.686" y="4.187" width="31.03" height="31.288"/>
			</defs>
			<clipPath id="SVGID_65_">
				<use xlink:href="#SVGID_64_"  style="overflow:visible;"/>
			</clipPath>
			<pattern  id="SVGID_66_" xlink:href="#Unnamed_Pattern_4" patternTransform="matrix(1.721 0 0 -1.721 6132.917 6935.0405)">
			</pattern>
			<path style="clip-path:url(#SVGID_65_);fill:url(#SVGID_66_);" d="M945.988,35.472c-0.136,0-0.27-0.005-0.404-0.019
				c-0.12-0.012-0.243-0.012-0.365-0.017c-0.382-0.008-0.857-0.022-1.392-0.134c-0.537-0.11-1.012-0.272-1.432-0.413l-0.267-0.091
				c-0.508-0.165-0.947-0.382-1.299-0.558c-0.108-0.052-0.215-0.105-0.325-0.157c-0.487-0.224-0.881-0.492-1.2-0.707
				c-0.103-0.071-0.205-0.141-0.31-0.205c-0.102-0.062-0.208-0.117-0.313-0.172c-0.339-0.183-0.762-0.41-1.2-0.754
				c-0.086-0.069-0.182-0.129-0.277-0.194c-0.31-0.207-0.732-0.492-1.136-0.898c-0.577-0.575-0.849-1.213-1.012-1.595l-0.04-0.034
				c-0.294-0.257-0.738-0.647-1.103-1.239c-0.062-0.1-0.126-0.2-0.189-0.3c-0.217-0.339-0.487-0.759-0.714-1.243
				c-0.305-0.65-0.358-1.272-0.354-1.736c-0.299-0.368-0.652-0.904-0.812-1.625c-0.182-0.833-0.029-1.547,0.103-2.012
				c-0.115-0.367-0.258-0.879-0.262-1.504c-0.002-0.535,0.055-1.005,0.103-1.421l0.036-0.318c0.059-0.57,0.207-1.045,0.315-1.391
				c0.033-0.1,0.067-0.2,0.089-0.301c0.028-0.127,0.047-0.249,0.065-0.37c0.057-0.353,0.129-0.788,0.282-1.27
				c0.01-0.057,0.016-0.112,0.022-0.168c0.05-0.394,0.126-0.986,0.423-1.63c0.32-0.694,0.785-1.146,1.108-1.437
				c0.117-0.409,0.317-1.012,0.778-1.597c0.435-0.556,0.933-0.893,1.258-1.115c0.05-0.033,0.1-0.065,0.148-0.1
				c0.367-0.362,0.73-0.626,1.024-0.842c0.091-0.067,0.186-0.134,0.277-0.207c0.026-0.026,0.076-0.083,0.124-0.136
				c0.253-0.272,0.637-0.682,1.198-1.022c0.451-0.274,0.96-0.582,1.547-0.847c0.11-0.048,0.219-0.103,0.327-0.158
				c0.344-0.172,0.774-0.386,1.292-0.547c0.372-0.115,0.769-0.174,1.186-0.174c0.186,0,0.356,0.01,0.506,0.026
				c0.398-0.231,0.995-0.515,1.755-0.566l0.325-0.026c0.325-0.026,0.695-0.057,1.098-0.057c0.114,0,0.224,0.003,0.336,0.008
				c0.74,0.034,1.33,0.291,1.733,0.508c0.2-0.031,0.437-0.055,0.699-0.055c0.346,0,0.683,0.045,1.005,0.131
				c0.85,0.23,1.428,0.719,1.747,0.995c0.036,0.014,0.069,0.026,0.105,0.038c0.286,0.098,0.63,0.22,1.003,0.392l0.029,0.005
				c0.427,0.067,1.141,0.181,1.862,0.652c0.463,0.303,0.867,0.633,1.224,0.924l0.155,0.126c0.482,0.392,0.914,0.824,1.263,1.172
				c0.368,0.37,0.638,0.74,0.855,1.036c0.072,0.098,0.143,0.198,0.219,0.291c0.418,0.515,0.64,1.033,0.786,1.375
				c0.017,0.048,0.036,0.091,0.057,0.136c0.026,0.029,0.067,0.072,0.107,0.117c0.241,0.268,0.607,0.673,0.895,1.239
				c0.349,0.688,0.422,1.339,0.465,1.726c0,0.009,0.002,0.017,0.002,0.026c0.016,0.026,0.031,0.052,0.048,0.081
				c0.174,0.313,0.439,0.787,0.596,1.399c0.138,0.527,0.243,1.076,0.327,1.678c0.019,0.121,0.04,0.241,0.06,0.36
				c0.067,0.366,0.15,0.824,0.163,1.349c0.014,0.527-0.043,0.995-0.088,1.372c-0.012,0.095-0.024,0.189-0.033,0.286
				c0.003,0.052,0.01,0.105,0.016,0.158c0.04,0.387,0.096,0.976-0.046,1.661c-0.108,0.516-0.274,0.976-0.408,1.342
				c-0.04,0.11-0.079,0.22-0.117,0.327c-0.176,0.527-0.398,1.071-0.659,1.621c-0.225,0.482-0.494,0.867-0.709,1.175
				c-0.07,0.101-0.139,0.203-0.205,0.305c-0.32,0.511-0.654,0.984-0.995,1.411c-0.072,0.089-0.136,0.186-0.201,0.28
				c-0.203,0.293-0.484,0.692-0.871,1.079c-0.435,0.434-0.897,0.814-1.329,1.158c-0.62,0.496-1.267,0.699-1.652,0.818
				c-0.026,0.009-0.053,0.017-0.081,0.026c-0.392,0.237-0.776,0.435-1.113,0.601c-0.301,0.318-0.847,0.886-1.711,1.194
				c-0.616,0.218-1.186,0.246-1.614,0.246l-0.255-0.002c-0.076,0.022-0.15,0.048-0.224,0.071c-0.341,0.108-0.805,0.257-1.351,0.325
				c-0.198,0.022-0.398,0.034-0.599,0.034c-0.358,0-0.663-0.034-0.909-0.065c-0.067-0.007-0.134-0.019-0.203-0.022
				c-0.052,0.009-0.105,0.021-0.158,0.031C946.898,35.391,946.485,35.472,945.988,35.472"/>
			<defs>
				<filter id="Adobe_OpacityMaskFilter_3_" filterUnits="userSpaceOnUse" x="931.684" y="4.187" width="31.032" height="31.288">
					
						<feColorMatrix  type="matrix" values="-1 0 0 0 1  0 -1 0 0 1  0 0 -1 0 1  0 0 0 1 0" color-interpolation-filters="sRGB" result="source"/>
				</filter>
			</defs>
			<mask maskUnits="userSpaceOnUse" x="931.684" y="4.187" width="31.032" height="31.288" id="SVGID_67_">
				<g style="filter:url(#Adobe_OpacityMaskFilter_3_);">
					<g style="enable-background:new    ;">
						<g>
							<defs>
								<rect id="SVGID_68_" x="930.268" y="2.806" width="33.768" height="34.081"/>
							</defs>
							<clipPath id="SVGID_69_" style="clip-path:url(#SVGID_65_);">
								<use xlink:href="#SVGID_68_"  style="overflow:visible;"/>
							</clipPath>
							<g transform="matrix(1 0 0 1 0 0)" style="clip-path:url(#SVGID_69_);">
								
									<image style="overflow:visible;" width="216" height="218" xlink:href="EC6418ED.html"  transform="matrix(0.1563 0 0 0.1563 930.2681 2.8062)">
								</image>
							</g>
						</g>
					</g>
				</g>
			</mask>
			<g style="opacity:0.7;clip-path:url(#SVGID_65_);mask:url(#SVGID_67_);">
				<g>
					<defs>
						<rect id="SVGID_70_" x="931.686" y="4.187" width="31.03" height="31.288"/>
					</defs>
					<clipPath id="SVGID_71_">
						<use xlink:href="#SVGID_70_"  style="overflow:visible;"/>
					</clipPath>
					<path style="clip-path:url(#SVGID_71_);fill:#A29F9D;" d="M945.988,35.472c-0.136,0-0.27-0.005-0.404-0.019
						c-0.12-0.012-0.243-0.012-0.365-0.017c-0.382-0.008-0.857-0.022-1.392-0.134c-0.537-0.11-1.012-0.272-1.432-0.413l-0.267-0.091
						c-0.508-0.165-0.947-0.382-1.299-0.558c-0.108-0.052-0.215-0.105-0.325-0.157c-0.487-0.224-0.881-0.492-1.2-0.707
						c-0.103-0.071-0.205-0.141-0.31-0.205c-0.102-0.062-0.208-0.117-0.313-0.172c-0.339-0.183-0.762-0.41-1.2-0.754
						c-0.086-0.069-0.182-0.129-0.277-0.194c-0.31-0.207-0.732-0.492-1.136-0.898c-0.577-0.575-0.849-1.213-1.012-1.595l-0.04-0.034
						c-0.294-0.257-0.738-0.647-1.103-1.239c-0.062-0.1-0.126-0.2-0.189-0.3c-0.217-0.339-0.487-0.759-0.714-1.243
						c-0.305-0.65-0.358-1.272-0.354-1.736c-0.299-0.368-0.652-0.904-0.812-1.625c-0.182-0.833-0.029-1.547,0.103-2.012
						c-0.115-0.367-0.258-0.879-0.262-1.504c-0.002-0.535,0.055-1.005,0.103-1.421l0.036-0.318c0.059-0.57,0.207-1.045,0.315-1.391
						c0.033-0.1,0.067-0.2,0.089-0.301c0.028-0.127,0.047-0.249,0.065-0.37c0.057-0.353,0.129-0.788,0.282-1.27
						c0.01-0.057,0.016-0.112,0.022-0.168c0.05-0.394,0.126-0.986,0.423-1.63c0.32-0.694,0.785-1.146,1.108-1.437
						c0.117-0.409,0.317-1.012,0.778-1.597c0.435-0.556,0.933-0.893,1.258-1.115c0.05-0.033,0.1-0.065,0.148-0.1
						c0.367-0.362,0.73-0.626,1.024-0.842c0.091-0.067,0.186-0.134,0.277-0.207c0.026-0.026,0.076-0.083,0.124-0.136
						c0.253-0.272,0.637-0.682,1.198-1.022c0.451-0.274,0.96-0.582,1.547-0.847c0.11-0.048,0.219-0.103,0.327-0.158
						c0.344-0.172,0.774-0.386,1.292-0.547c0.372-0.115,0.769-0.174,1.186-0.174c0.186,0,0.356,0.01,0.506,0.026
						c0.398-0.231,0.995-0.515,1.755-0.566l0.325-0.026c0.325-0.026,0.695-0.057,1.098-0.057c0.114,0,0.224,0.003,0.336,0.008
						c0.74,0.034,1.33,0.291,1.733,0.508c0.2-0.031,0.437-0.055,0.699-0.055c0.346,0,0.683,0.045,1.005,0.131
						c0.85,0.23,1.428,0.719,1.747,0.995c0.036,0.014,0.069,0.026,0.105,0.038c0.286,0.098,0.63,0.22,1.003,0.392l0.029,0.005
						c0.427,0.067,1.141,0.181,1.862,0.652c0.463,0.303,0.867,0.633,1.224,0.924l0.155,0.126c0.482,0.392,0.914,0.824,1.263,1.172
						c0.368,0.37,0.638,0.74,0.855,1.036c0.072,0.098,0.143,0.198,0.219,0.291c0.418,0.515,0.64,1.033,0.786,1.375
						c0.017,0.048,0.036,0.091,0.057,0.136c0.026,0.029,0.067,0.072,0.107,0.117c0.241,0.268,0.607,0.673,0.895,1.239
						c0.349,0.688,0.422,1.339,0.465,1.726c0,0.009,0.002,0.017,0.002,0.026c0.016,0.026,0.031,0.052,0.048,0.081
						c0.174,0.313,0.439,0.787,0.596,1.399c0.138,0.527,0.243,1.076,0.327,1.678c0.019,0.121,0.04,0.241,0.06,0.36
						c0.067,0.366,0.15,0.824,0.163,1.349c0.014,0.527-0.043,0.995-0.088,1.372c-0.012,0.095-0.024,0.189-0.033,0.286
						c0.003,0.052,0.01,0.105,0.016,0.158c0.04,0.387,0.096,0.976-0.046,1.661c-0.108,0.516-0.274,0.976-0.408,1.342
						c-0.04,0.11-0.079,0.22-0.117,0.327c-0.176,0.527-0.398,1.071-0.659,1.621c-0.225,0.482-0.494,0.867-0.709,1.175
						c-0.07,0.101-0.139,0.203-0.205,0.305c-0.32,0.511-0.654,0.984-0.995,1.411c-0.072,0.089-0.136,0.186-0.201,0.28
						c-0.203,0.293-0.484,0.692-0.871,1.079c-0.435,0.434-0.897,0.814-1.329,1.158c-0.62,0.496-1.267,0.699-1.652,0.818
						c-0.026,0.009-0.053,0.017-0.081,0.026c-0.392,0.237-0.776,0.435-1.113,0.601c-0.301,0.318-0.847,0.886-1.711,1.194
						c-0.616,0.218-1.186,0.246-1.614,0.246l-0.255-0.002c-0.076,0.022-0.15,0.048-0.224,0.071
						c-0.341,0.108-0.805,0.257-1.351,0.325c-0.198,0.022-0.398,0.034-0.599,0.034c-0.358,0-0.663-0.034-0.909-0.065
						c-0.067-0.007-0.134-0.019-0.203-0.022c-0.052,0.009-0.105,0.021-0.158,0.031C946.898,35.391,946.485,35.472,945.988,35.472"/>
				</g>
			</g>
			<g style="clip-path:url(#SVGID_65_);">
				<g>
					<defs>
						<rect id="SVGID_72_" x="931.686" y="4.187" width="31.03" height="31.288"/>
					</defs>
					<clipPath id="SVGID_73_">
						<use xlink:href="#SVGID_72_"  style="overflow:visible;"/>
					</clipPath>
					<g style="clip-path:url(#SVGID_73_);">
						<defs>
							<path id="SVGID_74_" d="M945.988,35.472c-0.136,0-0.27-0.005-0.404-0.019c-0.12-0.01-0.243-0.01-0.365-0.016
								c-0.382-0.01-0.857-0.024-1.392-0.136c-0.537-0.11-1.012-0.272-1.432-0.413l-0.267-0.089
								c-0.508-0.167-0.947-0.384-1.299-0.559c-0.108-0.052-0.215-0.105-0.325-0.157c-0.487-0.224-0.881-0.492-1.2-0.707
								c-0.103-0.071-0.205-0.141-0.312-0.205c-0.1-0.062-0.206-0.117-0.311-0.172c-0.339-0.182-0.764-0.41-1.2-0.754
								c-0.086-0.069-0.182-0.129-0.279-0.195c-0.308-0.207-0.73-0.492-1.134-0.898c-0.577-0.575-0.848-1.213-1.012-1.594
								l-0.04-0.036c-0.294-0.256-0.738-0.647-1.103-1.239c-0.062-0.1-0.126-0.2-0.189-0.298c-0.217-0.341-0.487-0.761-0.714-1.244
								c-0.305-0.651-0.358-1.272-0.355-1.737c-0.299-0.368-0.652-0.904-0.812-1.625c-0.182-0.833-0.029-1.547,0.103-2.012
								c-0.115-0.367-0.258-0.88-0.262-1.504c-0.002-0.535,0.055-1.005,0.103-1.42l0.034-0.32c0.06-0.57,0.208-1.043,0.317-1.391
								c0.033-0.1,0.067-0.2,0.09-0.301c0.026-0.127,0.046-0.25,0.065-0.37c0.057-0.353,0.129-0.788,0.282-1.27
								c0.01-0.057,0.016-0.112,0.022-0.169c0.05-0.394,0.126-0.984,0.423-1.628c0.32-0.695,0.785-1.146,1.108-1.437
								c0.117-0.411,0.317-1.014,0.776-1.599c0.437-0.556,0.933-0.893,1.26-1.115c0.05-0.033,0.098-0.065,0.148-0.1
								c0.367-0.361,0.73-0.625,1.024-0.84c0.091-0.067,0.186-0.136,0.277-0.208c0.026-0.026,0.076-0.081,0.124-0.136
								c0.253-0.272,0.637-0.682,1.198-1.021c0.451-0.275,0.96-0.583,1.547-0.848c0.11-0.048,0.219-0.103,0.327-0.157
								c0.344-0.174,0.774-0.387,1.293-0.549c0.372-0.115,0.769-0.174,1.186-0.174c0.186,0,0.356,0.012,0.504,0.026
								c0.399-0.229,0.997-0.515,1.757-0.566l0.324-0.024c0.327-0.028,0.697-0.059,1.1-0.059c0.114,0,0.224,0.003,0.334,0.009
								c0.742,0.034,1.332,0.291,1.735,0.508c0.198-0.029,0.437-0.055,0.699-0.055c0.346,0,0.683,0.045,1.005,0.131
								c0.85,0.231,1.428,0.719,1.747,0.995c0.036,0.014,0.069,0.026,0.105,0.038c0.286,0.098,0.63,0.22,1.003,0.392l0.029,0.005
								c0.427,0.067,1.141,0.181,1.862,0.652c0.463,0.303,0.867,0.633,1.224,0.924l0.155,0.126c0.482,0.392,0.914,0.824,1.262,1.172
								c0.37,0.37,0.64,0.74,0.857,1.036c0.072,0.098,0.143,0.198,0.219,0.292c0.418,0.513,0.64,1.031,0.786,1.374
								c0.017,0.048,0.036,0.091,0.057,0.138c0.024,0.028,0.067,0.071,0.107,0.115c0.241,0.268,0.608,0.673,0.895,1.241
								c0.349,0.687,0.422,1.337,0.465,1.726c0,0.007,0.002,0.016,0.002,0.024c0.016,0.026,0.031,0.051,0.048,0.081
								c0.174,0.313,0.437,0.786,0.595,1.401c0.136,0.525,0.243,1.076,0.327,1.676c0.017,0.12,0.04,0.241,0.06,0.36
								c0.067,0.367,0.15,0.824,0.164,1.349c0.012,0.526-0.043,0.995-0.088,1.372c-0.012,0.095-0.024,0.191-0.033,0.286
								c0.003,0.052,0.01,0.105,0.015,0.158c0.04,0.389,0.096,0.976-0.046,1.661c-0.108,0.518-0.274,0.976-0.41,1.342
								c-0.038,0.112-0.077,0.22-0.115,0.329c-0.176,0.525-0.398,1.07-0.659,1.62c-0.227,0.482-0.494,0.867-0.709,1.177
								c-0.071,0.1-0.139,0.201-0.205,0.303c-0.322,0.511-0.654,0.986-0.995,1.413c-0.072,0.088-0.136,0.184-0.201,0.279
								c-0.203,0.293-0.485,0.692-0.871,1.079c-0.435,0.435-0.897,0.814-1.329,1.158c-0.62,0.497-1.267,0.699-1.652,0.817
								c-0.026,0.009-0.053,0.017-0.081,0.026c-0.392,0.238-0.776,0.436-1.114,0.601c-0.301,0.318-0.847,0.886-1.711,1.194
								c-0.618,0.219-1.188,0.246-1.616,0.246l-0.253-0.002c-0.076,0.022-0.15,0.048-0.224,0.07
								c-0.341,0.109-0.805,0.257-1.351,0.325c-0.198,0.022-0.399,0.034-0.599,0.034c-0.358,0-0.663-0.034-0.909-0.066
								c-0.067-0.007-0.134-0.019-0.203-0.021c-0.053,0.007-0.105,0.019-0.158,0.029C946.898,35.391,946.485,35.472,945.988,35.472"
								/>
						</defs>
						<clipPath id="SVGID_75_">
							<use xlink:href="#SVGID_74_"  style="overflow:visible;"/>
						</clipPath>
						
							<linearGradient id="SVGID_76_" gradientUnits="userSpaceOnUse" x1="435.5901" y1="801.2925" x2="437.3111" y2="801.2925" gradientTransform="matrix(0 -8.2477 -8.2477 0 7556.001 3625.2158)">
							<stop  offset="0" style="stop-color:#BAD6A9"/>
							<stop  offset="1" style="stop-color:#18A28E"/>
						</linearGradient>
						<rect x="931.66" y="4.189" style="clip-path:url(#SVGID_75_);fill:url(#SVGID_76_);" width="31.066" height="31.283"/>
					</g>
					<g style="clip-path:url(#SVGID_73_);">
						<defs>
							<path id="SVGID_77_" d="M945.988,35.472c-0.136,0-0.27-0.005-0.404-0.019c-0.12-0.01-0.243-0.01-0.365-0.016
								c-0.382-0.01-0.857-0.024-1.392-0.136c-0.537-0.11-1.012-0.272-1.432-0.413l-0.267-0.089
								c-0.508-0.167-0.947-0.384-1.299-0.559c-0.108-0.052-0.215-0.105-0.325-0.157c-0.487-0.224-0.881-0.492-1.2-0.707
								c-0.103-0.071-0.205-0.141-0.312-0.205c-0.1-0.062-0.206-0.117-0.311-0.172c-0.339-0.182-0.764-0.41-1.2-0.754
								c-0.086-0.069-0.182-0.129-0.279-0.195c-0.308-0.207-0.73-0.492-1.134-0.898c-0.577-0.575-0.848-1.213-1.012-1.594
								l-0.04-0.036c-0.294-0.256-0.738-0.647-1.103-1.239c-0.062-0.1-0.126-0.2-0.189-0.298c-0.217-0.341-0.487-0.761-0.714-1.244
								c-0.305-0.651-0.358-1.272-0.355-1.737c-0.299-0.368-0.652-0.904-0.812-1.625c-0.182-0.833-0.029-1.547,0.103-2.012
								c-0.115-0.367-0.258-0.88-0.262-1.504c-0.002-0.535,0.055-1.005,0.103-1.42l0.034-0.32c0.06-0.57,0.208-1.043,0.317-1.391
								c0.033-0.1,0.067-0.2,0.09-0.301c0.026-0.127,0.046-0.25,0.065-0.37c0.057-0.353,0.129-0.788,0.282-1.27
								c0.01-0.057,0.016-0.112,0.022-0.169c0.05-0.394,0.126-0.984,0.423-1.628c0.32-0.695,0.785-1.146,1.108-1.437
								c0.117-0.411,0.317-1.014,0.776-1.599c0.437-0.556,0.933-0.893,1.26-1.115c0.05-0.033,0.098-0.065,0.148-0.1
								c0.367-0.361,0.73-0.625,1.024-0.84c0.091-0.067,0.186-0.136,0.277-0.208c0.026-0.026,0.076-0.081,0.124-0.136
								c0.253-0.272,0.637-0.682,1.198-1.021c0.451-0.275,0.96-0.583,1.547-0.848c0.11-0.048,0.219-0.103,0.327-0.157
								c0.344-0.174,0.774-0.387,1.293-0.549c0.372-0.115,0.769-0.174,1.186-0.174c0.186,0,0.356,0.012,0.504,0.026
								c0.399-0.229,0.997-0.515,1.757-0.566l0.324-0.024c0.327-0.028,0.697-0.059,1.1-0.059c0.114,0,0.224,0.003,0.334,0.009
								c0.742,0.034,1.332,0.291,1.735,0.508c0.198-0.029,0.437-0.055,0.699-0.055c0.346,0,0.683,0.045,1.005,0.131
								c0.85,0.231,1.428,0.719,1.747,0.995c0.036,0.014,0.069,0.026,0.105,0.038c0.286,0.098,0.63,0.22,1.003,0.392l0.029,0.005
								c0.427,0.067,1.141,0.181,1.862,0.652c0.463,0.303,0.867,0.633,1.224,0.924l0.155,0.126c0.482,0.392,0.914,0.824,1.262,1.172
								c0.37,0.37,0.64,0.74,0.857,1.036c0.072,0.098,0.143,0.198,0.219,0.292c0.418,0.513,0.64,1.031,0.786,1.374
								c0.017,0.048,0.036,0.091,0.057,0.138c0.024,0.028,0.067,0.071,0.107,0.115c0.241,0.268,0.608,0.673,0.895,1.241
								c0.349,0.687,0.422,1.337,0.465,1.726c0,0.007,0.002,0.016,0.002,0.024c0.016,0.026,0.031,0.051,0.048,0.081
								c0.174,0.313,0.437,0.786,0.595,1.401c0.136,0.525,0.243,1.076,0.327,1.676c0.017,0.12,0.04,0.241,0.06,0.36
								c0.067,0.367,0.15,0.824,0.164,1.349c0.012,0.526-0.043,0.995-0.088,1.372c-0.012,0.095-0.024,0.191-0.033,0.286
								c0.003,0.052,0.01,0.105,0.015,0.158c0.04,0.389,0.096,0.976-0.046,1.661c-0.108,0.518-0.274,0.976-0.41,1.342
								c-0.038,0.112-0.077,0.22-0.115,0.329c-0.176,0.525-0.398,1.07-0.659,1.62c-0.227,0.482-0.494,0.867-0.709,1.177
								c-0.071,0.1-0.139,0.201-0.205,0.303c-0.322,0.511-0.654,0.986-0.995,1.413c-0.072,0.088-0.136,0.184-0.201,0.279
								c-0.203,0.293-0.485,0.692-0.871,1.079c-0.435,0.435-0.897,0.814-1.329,1.158c-0.62,0.497-1.267,0.699-1.652,0.817
								c-0.026,0.009-0.053,0.017-0.081,0.026c-0.392,0.238-0.776,0.436-1.114,0.601c-0.301,0.318-0.847,0.886-1.711,1.194
								c-0.618,0.219-1.188,0.246-1.616,0.246l-0.253-0.002c-0.076,0.022-0.15,0.048-0.224,0.07
								c-0.341,0.109-0.805,0.257-1.351,0.325c-0.198,0.022-0.399,0.034-0.599,0.034c-0.358,0-0.663-0.034-0.909-0.066
								c-0.067-0.007-0.134-0.019-0.203-0.021c-0.053,0.007-0.105,0.019-0.158,0.029C946.898,35.391,946.485,35.472,945.988,35.472"
								/>
						</defs>
						<clipPath id="SVGID_78_">
							<use xlink:href="#SVGID_77_"  style="overflow:visible;"/>
						</clipPath>
						
							<linearGradient id="SVGID_79_" gradientUnits="userSpaceOnUse" x1="435.5901" y1="801.2925" x2="437.3111" y2="801.2925" gradientTransform="matrix(0 -8.2477 -8.2477 0 7556.001 3625.2158)">
							<stop  offset="0" style="stop-color:#BAD6A9"/>
							<stop  offset="1" style="stop-color:#18A28E"/>
						</linearGradient>
						<rect x="931.66" y="4.189" style="clip-path:url(#SVGID_78_);fill:url(#SVGID_79_);" width="31.066" height="31.283"/>
					</g>
					<g style="clip-path:url(#SVGID_73_);">
						<defs>
							<path id="SVGID_80_" d="M956.268,10.954c4.924,4.924,4.924,12.906,0,17.83c-4.924,4.924-12.906,4.924-17.83-0.002
								c-4.924-4.922-4.922-12.904,0-17.827C943.362,6.032,951.344,6.032,956.268,10.954"/>
						</defs>
						<clipPath id="SVGID_81_">
							<use xlink:href="#SVGID_80_"  style="overflow:visible;"/>
						</clipPath>
						
							<linearGradient id="SVGID_82_" gradientUnits="userSpaceOnUse" x1="435.5901" y1="801.2839" x2="437.3111" y2="801.2839" gradientTransform="matrix(0 -8.2477 -8.2477 0 7556.0894 3625.2158)">
							<stop  offset="0" style="stop-color:#BAD6A9"/>
							<stop  offset="1" style="stop-color:#18A28E"/>
						</linearGradient>
						<rect x="933.514" y="6.032" style="clip-path:url(#SVGID_81_);fill:url(#SVGID_82_);" width="27.678" height="27.676"/>
					</g>
				</g>
			</g>
		</g>
	</g>
	<path style="fill:#FFFFFF;" d="M923.76,35.722c0.107-0.356,0.463-0.518,0.659-0.518c0.143,0,0.322,0.019,0.499,0.162l0.411,0.356
		c0.196,0.179,0.287,0.394,0.287,0.606c0,0.322-0.181,0.535-0.375,0.678l-1.339,0.929l-0.214,0.071c-0.268,0-0.503-0.25-0.411-0.554
		L923.76,35.722 M924.67,32.831c-0.358,0-0.642-0.284-0.642-0.625c0-0.354,0.284-0.642,0.642-0.642h1.802v-1.836
		c0-0.413,0.339-0.732,0.73-0.732c0.413,0,0.749,0.339,0.749,0.732v1.836h1.323c0.356,0,0.642,0.287,0.642,0.642
		c0,0.358-0.305,0.625-0.642,0.625h-1.323v7.832c0,0.411-0.336,0.731-0.749,0.731c-0.41,0-0.73-0.32-0.73-0.731v-7.832H924.67z
		 M926.222,26.176c0.141-0.232,0.392-0.409,0.749-0.409c0.09,0,0.41,0.053,0.571,0.25l0.606,0.731
		c0.215,0.25,0.231,0.429,0.231,0.554c0,0.303-0.176,0.589-0.461,0.73l-3.587,1.75c-0.127,0.071-0.198-0.091-0.127-0.196
		L926.222,26.176z M930.36,35.846c0.198,0.179,0.251,0.375,0.251,0.518c0,0.375-0.305,0.68-0.68,0.68
		c-0.124,0-0.301-0.055-0.429-0.162l-0.442-0.392c-0.215-0.179-0.251-0.374-0.251-0.516c0-0.375,0.305-0.68,0.678-0.68
		c0.124,0,0.301,0.053,0.429,0.16L930.36,35.846z M936.177,26.89c0.108-0.268,0.375-0.499,0.731-0.499s0.804,0.286,0.804,0.84
		l-0.053,0.286l-5.354,13.2c-0.124,0.305-0.41,0.501-0.747,0.501c-0.375,0-0.804-0.286-0.804-0.821l0.053-0.284L936.177,26.89z
		 M931.361,29.62c-0.091-0.284,0.053-0.642,0.461-0.642l0.234,0.053l0.676,0.356c0.232,0.126,0.501,0.341,0.501,0.716
		c0,0.409-0.465,0.909-0.893,0.909c-0.177,0-0.551-0.071-0.695-0.499L931.361,29.62z M935.59,37.97
		c-0.213-0.231-0.213-0.465-0.213-0.552c0-0.287,0.141-0.571,0.427-0.716l1.052-0.515c0.089-0.036,0.215-0.071,0.356-0.071
		c0.375,0,0.749,0.265,0.804,0.676l0.465,3.266c0.036,0.248-0.162,0.429-0.358,0.429c-0.124,0-0.196-0.055-0.248-0.108L935.59,37.97
		z M938.354,30.21c0.196-0.179,0.41-0.198,0.501-0.198c0.373,0,0.712,0.305,0.712,0.716c0,0.195-0.089,0.375-0.215,0.499
		l-0.855,0.855c-0.143,0.145-0.339,0.215-0.518,0.215c-0.375,0-0.714-0.322-0.714-0.75c0-0.196,0.091-0.374,0.234-0.516
		L938.354,30.21z"/>
	<path style="fill:#FFFFFF;" d="M954.971,23.455l0.09,0.196c0,0.179-0.143,0.232-0.232,0.179l-8.423-4.067l-5.475,3.996
		c-0.091,0.071-0.251,0.162-0.484,0.162c-0.411,0-0.802-0.322-0.802-0.787c0-0.284,0.143-0.516,0.32-0.642l4.853-3.569
		c-0.339-0.143-0.802-0.339-0.802-0.909c0-0.305,0.126-0.482,0.16-0.554l0.482-0.713c0.194-0.286,0.518-0.447,0.838-0.447
		c0.072,0,0.375,0.036,0.625,0.234l0.945,0.749l2.463-1.874l-4.888-1.857l-1.07,1.554c-0.286,0.41-0.661,0.41-0.733,0.41
		c-0.516,0-0.836-0.427-0.836-0.802c0-0.091,0.017-0.286,0.124-0.465l1.107-1.695c0.231-0.339,0.623-0.606,1.141-0.606
		c0.177,0,0.32,0,0.501,0.072l6.92,2.657c0.234,0.088,0.375,0.303,0.375,0.571c0,0.053,0,0.301-0.232,0.463l-3.566,2.606
		L954.971,23.455 M944.39,25.044l-0.053-0.124c0-0.089,0.072-0.198,0.194-0.179l4.784,0.375c0.356,0.034,0.676,0.32,0.676,0.749
		c0,0.126-0.053,0.251-0.088,0.322l-0.554,1.088c-0.25,0.499-0.785,0.518-0.819,0.518c-0.198,0-0.413-0.071-0.589-0.198
		L944.39,25.044z M948.512,22.243c0.322,0.071,0.518,0.375,0.518,0.659c0,0.429-0.411,0.804-0.892,0.676l-1.607-0.391
		c-0.284-0.071-0.515-0.337-0.515-0.678c0-0.429,0.408-0.767,0.855-0.661L948.512,22.243z"/>
	<path style="fill:#FFFFFF;" d="M955.316,55.226c0.036,0.124-0.071,0.213-0.162,0.213l-0.105-0.053l-3.373-3.354
		c0.053,0.126,0.088,0.303,0.088,0.43v4.513c0,0.606-0.499,1.105-1.088,1.105h-6.37c-0.604,0-1.088-0.499-1.088-1.105v-4.855
		c0-0.463,0.375-0.819,0.821-0.819c0.447,0,0.823,0.356,0.823,0.819v4.499h5.191v-3.194l-4.657-0.857l-0.126-0.143l0.126-0.143
		l5.263-0.804c0.231-0.033,0.446,0.019,0.661,0.143c-0.055-0.124-0.108-0.213-0.108-0.391c0-0.356,0.215-0.626,0.429-0.732
		l0.75-0.394h-8.387l-3.124,3.998c-0.105,0.143-0.318,0.32-0.657,0.32c-0.429,0-0.84-0.337-0.84-0.836
		c0-0.072,0.036-0.305,0.177-0.501l2.322-2.981h-1.642c-0.358,0-0.661-0.303-0.661-0.676c0-0.375,0.303-0.68,0.661-0.68h2.659
		l1.141-1.391h-1.248c-0.358,0-0.661-0.284-0.661-0.642c0-0.356,0.303-0.661,0.661-0.661h2.212l1.107-1.425l-3.48-0.215
		c-0.322-0.019-0.626-0.286-0.626-0.661c0-0.41,0.342-0.695,0.716-0.678l4.389,0.268l1.088-1.411c0.181-0.231,0.446-0.32,0.68-0.32
		c0.482,0,0.857,0.356,0.857,0.855c0,0.053-0.038,0.287-0.181,0.482l-0.41,0.518l3.335,0.196c0.358,0.019,0.626,0.322,0.626,0.661
		c0,0.375-0.322,0.695-0.714,0.678l-4.229-0.25l-1.034,1.301h2.979c0.354,0,0.659,0.305,0.659,0.661
		c0,0.358-0.305,0.642-0.659,0.642h-3.926l-1.16,1.391h9.474c0.375,0,0.659,0.305,0.659,0.68c0,0.356-0.284,0.676-0.659,0.676
		h-0.714c0.089,0.089,0.143,0.215,0.194,0.341L955.316,55.226 M947.483,55.368c-0.465,0-0.838-0.375-0.838-0.838
		c0-0.465,0.373-0.84,0.838-0.84c0.463,0,0.836,0.375,0.836,0.84C948.32,54.993,947.946,55.368,947.483,55.368"/>
	<path style="fill:#FFFFFF;" d="M958.394,42.453l-0.284,0.053c-0.429,0-0.695-0.358-0.695-0.716c0-0.265,0.179-0.516,0.408-0.623
		l2.644-1.125c-0.356-0.158-0.356-0.446-0.356-0.499c0-0.143,0.053-0.231,0.086-0.301l0.428-0.645
		c0.232-0.356,0.627-0.444,0.857-0.444c0.017,0,0.322,0,0.57,0.177l0.91,0.625l1.32-0.554l-1.301-1.96l-4.246,2.086
		c-0.143,0.071-0.25,0.089-0.322,0.089c-0.411,0-0.695-0.356-0.695-0.714c0-0.303,0.16-0.553,0.392-0.659l2.907-1.409h-4.084
		c-0.589,0-1.053-0.463-1.053-1.036v-4.547c0-0.59,0.482-1.053,1.053-1.053h4.423l0.554-1.286h-4.103
		c-0.341,0-0.607-0.268-0.607-0.588c0-0.339,0.286-0.608,0.607-0.608h9.366c0.339,0,0.608,0.268,0.608,0.608
		c0,0.32-0.268,0.588-0.608,0.588h-3.604l-0.501,1.286h4.96c0.59,0,1.053,0.463,1.053,1.053v4.547c0,0.573-0.48,1.036-1.053,1.036
		h-3.461l1.411,2.284c0.088,0.143,0.143,0.303,0.143,0.465c0,0.391-0.25,0.695-0.554,0.819l-1.232,0.518l3.48,2.427l0.089,0.194
		c0,0.162-0.143,0.251-0.251,0.198l-5.261-1.981L958.394,42.453 M966.78,34.6l1.482-4.246h-10.868v2.017l8.299,0.678l0.107,0.124
		l-0.107,0.108l-8.299,0.785V34.6H966.78z M963.087,31.46c0,0.429-0.358,0.785-0.785,0.785c-0.446,0-0.804-0.339-0.804-0.785
		c0-0.428,0.358-0.804,0.804-0.804C962.75,30.657,963.087,31.032,963.087,31.46"/>
</g>
</svg>
