<?xml version="1.0" encoding="utf-8"?>
<!-- Generator: Adobe Illustrator 18.0.0, SVG Export Plug-In . SVG Version: 6.00 Build 0)  -->
<!DOCTYPE svg PUBLIC "-//W3C//DTD SVG 1.1//EN" "http://www.w3.org/Graphics/SVG/1.1/DTD/svg11.dtd">
<svg version="1.1" id="レイヤー_1" xmlns="http://www.w3.org/2000/svg" xmlns:xlink="http://www.w3.org/1999/xlink" x="0px"
	 y="0px" width="986.724px" height="63px" viewBox="0 0 986.724 63" style="enable-background:new 0 0 986.724 63;"
	 xml:space="preserve">
<g>
	<path style="fill:#F3FAFB;" d="M656.057,62.75h330.666H656.057z"/>
	<line style="fill:none;stroke:#231815;stroke-width:0.283;stroke-miterlimit:10;" x1="0" y1="62.75" x2="986.724" y2="62.75"/>
	<g>
		<path style="fill:#040000;" d="M949.979,55.741l-0.636-0.462c3.266-4.508,2.019-11.252,0.769-14.524
			c-0.063-0.163-0.128-0.345-0.201-0.546c-0.837-2.331-2.581-7.185-10.089-9.573c-7.709-2.451-12.358,0.027-12.407,0.057
			l-0.416,0.228l-0.149-0.451c-0.005-0.022-0.717-2.147-2.603-4.11l-0.231-0.242l0.201-0.268c0.478-0.636,0.774-1.25,0.883-1.826
			c0.359-1.974-0.813-4.921-1.495-5.42c-0.609-0.443-2.331-0.429-4.383,1.518c-0.742,0.701-1.215,1.577-1.413,2.603l-0.068,0.355
			l-0.359-0.037c-1.092-0.11-2.198-0.088-3.37,0.065c-9.861,1.299-8.752,15.6-8.742,15.747l-0.783,0.065
			c-0.014-0.149-1.185-15.195,9.421-16.592c1.09-0.143,2.168-0.174,3.204-0.099c0.264-1.043,0.788-1.943,1.565-2.678
			c2.263-2.147,4.378-2.329,5.391-1.581c0.973,0.709,2.206,3.974,1.804,6.197c-0.114,0.611-0.394,1.245-0.834,1.887
			c1.375,1.511,2.106,3.035,2.399,3.753c1.329-0.582,5.801-2.09,12.622,0.079c7.88,2.505,9.712,7.606,10.592,10.057
			c0.071,0.196,0.133,0.372,0.193,0.53C952.155,43.893,953.446,50.961,949.979,55.741z"/>
		<path style="fill:#040000;" d="M921.594,52.094c-4.084,0-5.736-2.503-6.723-4c-0.351-0.533-0.685-1.035-0.927-1.106
			c-0.552-0.152-0.94,0.312-1.326,0.84c-0.201,0.274-0.348,0.476-0.611,0.476c-0.003,0-0.005,0-0.011,0l-0.204-0.005l-0.155-0.196
			c-0.087-0.13-0.125-0.277-0.147-0.429c-0.095,0.217-0.223,0.397-0.467,0.418c-0.117,0.016-0.326-0.011-0.486-0.283
			c-0.052-0.082-0.087-0.168-0.109-0.258l-0.092,0.356l-0.492-0.59c-0.024-0.03-0.609-0.747-0.152-1.774
			c0.418-0.943,1.783-1.231,3.638-0.772c1.152,0.291,4.388,0.658,5.475-1.092c0.829-1.342-0.41-2.975-0.875-3.513
			c-0.897,0.307-3.992,1.261-7.638,0.932c-4.288-0.372-5.655-1.886-5.709-1.951l0.59-0.519c0.014,0.014,1.264,1.345,5.19,1.687
			c4.049,0.348,7.508-0.962,7.541-0.976l0.239-0.092l0.179,0.179c0.103,0.103,2.481,2.519,1.152,4.666
			c-1.283,2.079-4.706,1.853-6.334,1.446c-1.389-0.353-2.489-0.217-2.731,0.326c-0.027,0.06-0.046,0.12-0.063,0.174
			c0.226-0.133,0.568-0.125,0.745,0.079c0.101,0.114,0.136,0.25,0.141,0.394c0.12-0.101,0.274-0.149,0.465-0.098
			c0.348,0.084,0.47,0.372,0.519,0.647c0.394-0.484,1.03-1.084,1.946-0.826c0.522,0.147,0.894,0.712,1.367,1.427
			c0.956,1.454,2.405,3.647,6.065,3.647c4.666,0,5.323-3.405,5.676-5.234c0.041-0.209,0.076-0.397,0.114-0.552
			c0.076-0.326,0.269-0.571,0.554-0.707c0.625-0.304,1.533,0.008,2.185,0.321l-0.337,0.712c-0.807-0.386-1.307-0.421-1.508-0.323
			c-0.049,0.024-0.101,0.062-0.128,0.177c-0.035,0.149-0.068,0.323-0.106,0.522C927.675,48.127,926.912,52.094,921.594,52.094z"/>
		<path style="fill:#040000;" d="M921.26,27.655c-0.668,0-1.315-0.439-1.883-0.825c-0.378-0.255-0.766-0.518-1.005-0.539
			l-0.283-0.026l-0.065-0.276c-0.636-2.666,0.736-5.115,3.337-5.959c0.293-0.094,0.565-0.143,0.807-0.143
			c1.481,0,1.639,1.709,1.69,2.27c0.158,1.698-0.326,3.446-1.329,4.796C922.181,27.418,921.754,27.655,921.26,27.655z
			 M918.738,25.569c0.351,0.114,0.707,0.356,1.079,0.609c0.478,0.323,1.016,0.689,1.443,0.689c0.152,0,0.38-0.039,0.639-0.383
			c0.886-1.196,1.315-2.746,1.177-4.253c-0.128-1.367-0.511-1.556-0.908-1.556c-0.16,0-0.351,0.035-0.563,0.105
			C919.488,21.466,918.336,23.414,918.738,25.569z"/>
		<path style="fill:#040000;" d="M914.325,33.861c-1.285,0-2.331-1.046-2.331-2.331c0-1.283,1.046-2.329,2.331-2.329
			c1.283,0,2.326,1.046,2.326,2.329C916.651,32.815,915.608,33.861,914.325,33.861z M914.325,29.989
			c-0.851,0-1.543,0.69-1.543,1.541s0.693,1.543,1.543,1.543c0.848,0,1.538-0.693,1.538-1.543S915.173,29.989,914.325,29.989z"/>
		<path style="fill:#040000;" d="M905.466,38.436c0-0.604-0.49-1.091-1.091-1.091c-0.601,0-1.088,0.487-1.088,1.091
			c0,0.601,0.487,1.088,1.088,1.088C904.976,39.524,905.466,39.037,905.466,38.436"/>
		<path style="fill:#040000;" d="M952.859,61.067c-2.236,0-4.399-0.516-6.369-1.562c-0.193-0.103-0.266-0.34-0.163-0.533
			s0.337-0.261,0.533-0.163c6.913,3.677,13.587-0.264,16.144-2.125c2.698-1.967,4.269-6.092,4.63-9.307
			c0.285-3.435-0.886-6.72-3.685-10.326c-3.136-3.916-4.954-7.339-5.891-11.095l-0.188-0.867c-1.014-4.671-2.062-9.501,0.932-13.827
			c0.247-0.374,0.524-0.753,0.799-1.133c1.185-1.626,2.302-3.163,1.568-4.626c-0.601-1.201-2.101-1.812-3.677-1.503
			c-3.967,0.852-7.595,3.42-11.41,8.079c-1.965,2.621-2.994,5.304-3.334,8.687c0.003,1.822,0.353,3.643,0.69,5.402
			c0.337,1.755,0.688,3.571,0.693,5.435c0,0.217-0.177,0.394-0.394,0.394l0,0c-0.217,0-0.394-0.177-0.394-0.394
			c-0.005-1.788-0.332-3.486-0.677-5.287c-0.345-1.795-0.704-3.652-0.704-5.59c0.356-3.573,1.435-6.378,3.5-9.134
			c3.945-4.818,7.714-7.47,11.872-8.363c1.921-0.389,3.783,0.406,4.541,1.92c0.946,1.893-0.367,3.697-1.636,5.443
			c-0.269,0.371-0.541,0.742-0.785,1.113c-2.804,4.05-1.793,8.71-0.812,13.217l0.185,0.856c0.905,3.626,2.677,6.958,5.739,10.784
			c2.935,3.777,4.157,7.236,3.85,10.891c-0.351,3.149-1.859,7.614-4.951,9.867C960.063,59.798,956.37,61.067,952.859,61.067z"/>
		<path style="fill:#040000;" d="M926.729,62.724c-1.935,0-3.869-0.19-5.731-0.908c-0.783-0.258-1.312-1.215-1.424-2.022
			c-0.103-0.764,0.136-1.402,0.658-1.75c1.867-1.117,3.978-1.437,5.693-0.875c1.334,0.019,2.739,0.111,4.356,0.288
			c-0.785-1.111-1.359-2.378-1.677-3.706c-1.386-5.818,2.185-12.108,7.799-13.739c0.209-0.062,0.427,0.06,0.486,0.269
			c0.06,0.207-0.06,0.427-0.269,0.486c-5.223,1.516-8.543,7.377-7.25,12.799c0.364,1.522,1.087,2.951,2.095,4.133
			c0.106,0.122,0.125,0.299,0.049,0.443c-0.079,0.141-0.236,0.239-0.397,0.204c-2.016-0.247-3.69-0.37-5.266-0.389
			c-0.041,0-0.082-0.008-0.122-0.022c-1.492-0.516-3.432-0.212-5.076,0.772c-0.342,0.231-0.334,0.715-0.299,0.978
			c0.087,0.628,0.495,1.253,0.91,1.391c2.788,1.068,5.677,0.91,8.744,0.734c1.696-0.095,3.446-0.193,5.19-0.071
			c2.443,0.31,5.253-0.149,8.386-1.342c2.109-0.804,3.875-2.239,5.253-4.263c0.122-0.182,0.378-0.226,0.546-0.106
			c0.182,0.122,0.228,0.367,0.106,0.546c-1.47,2.163-3.364,3.696-5.622,4.557c-3.258,1.242-6.19,1.715-8.744,1.394
			c-1.677-0.12-3.399-0.022-5.068,0.073C928.955,62.662,927.841,62.724,926.729,62.724z"/>
		<path style="fill:#040000;" d="M913.548,44.556c-0.155,0-0.302-0.092-0.364-0.245c-0.082-0.201,0.014-0.432,0.215-0.514
			l4.076-1.677c0.207-0.082,0.432,0.016,0.514,0.215c0.081,0.201-0.014,0.432-0.215,0.514l-4.076,1.677
			C913.648,44.545,913.597,44.556,913.548,44.556z"/>
		<path style="fill:#040000;" d="M965.326,34.548c-0.158,0-0.304-0.095-0.367-0.25c-0.079-0.201,0.019-0.429,0.223-0.511
			l5.557-2.201c0.152-0.666,0.592-2.997-0.193-4.939c-0.783-1.942-2.717-3.316-3.288-3.69l-6.261,2.53
			c-0.204,0.08-0.432-0.018-0.511-0.217c-0.082-0.202,0.016-0.432,0.217-0.514l6.448-2.605c0.114-0.043,0.245-0.033,0.345,0.026
			c0.114,0.067,2.758,1.645,3.777,4.175c1.027,2.533,0.212,5.505,0.179,5.63c-0.035,0.12-0.122,0.215-0.236,0.261l-5.747,2.277
			C965.424,34.54,965.375,34.548,965.326,34.548z"/>
		<path style="fill:#040000;" d="M897.592,61.887c-0.092,0-0.185-0.033-0.258-0.098c-0.111-0.098-0.16-0.25-0.122-0.394
			c0.005-0.03,0.734-2.943-0.149-5.13c-0.886-2.187-3.432-3.777-3.456-3.793c-0.125-0.076-0.198-0.22-0.185-0.367
			c0.011-0.147,0.106-0.277,0.242-0.332l13.85-5.625c0.204-0.076,0.432,0.016,0.514,0.215c0.081,0.204-0.014,0.432-0.215,0.514
			l-13.176,5.35c0.878,0.652,2.451,2.003,3.155,3.744c0.704,1.739,0.511,3.804,0.332,4.883l21.108-8.519
			c0.206-0.087,0.432,0.014,0.511,0.217c0.082,0.201-0.016,0.429-0.217,0.511l-21.785,8.793
			C897.692,61.876,897.641,61.887,897.592,61.887z"/>
		<path style="fill:#040000;" d="M973.217,30.255c-0.087,0-0.177-0.03-0.247-0.087c-0.111-0.09-0.163-0.231-0.141-0.372
			c0.003-0.022,0.356-2.225-0.356-3.993c-0.712-1.759-2.568-3.087-2.587-3.099c-0.117-0.083-0.179-0.224-0.163-0.367
			s0.109-0.265,0.242-0.319l7.924-3.234c0.114-0.05,0.239-0.037,0.351,0.024c0.09,0.054,2.253,1.345,3.087,3.421
			c0.84,2.072,0.179,4.501,0.152,4.604c-0.035,0.118-0.12,0.215-0.234,0.26l-7.88,3.134
			C973.315,30.247,973.266,30.255,973.217,30.255z M970.886,22.492c0.666,0.571,1.766,1.66,2.315,3.016
			c0.549,1.357,0.541,2.889,0.478,3.744l7.084-2.815c0.128-0.577,0.448-2.397-0.166-3.913c-0.614-1.52-2.106-2.607-2.6-2.935
			L970.886,22.492z"/>
		<path style="fill:#040000;" d="M895.703,62.732L895.703,62.732l-13.464-0.008c-0.16,0-0.304-0.098-0.364-0.247
			c-0.06-0.149-0.024-0.318,0.09-0.429l9.684-9.35c0.125-0.125,0.323-0.147,0.473-0.057c0.114,0.065,2.755,1.644,3.78,4.174
			c1.019,2.533,0.215,5.505,0.182,5.63C896.035,62.613,895.88,62.732,895.703,62.732z M883.212,61.936l12.179,0.008
			c0.166-0.777,0.527-2.984-0.217-4.837c-0.75-1.85-2.541-3.185-3.201-3.628L883.212,61.936z"/>
		<path style="fill:#040000;" d="M914.724,31.528c0.106,0.712,0.064,1.352-0.771,1.522c-0.487,0.1-1.216-0.596-1.205-1.316
			c0.02-1.091,0.47-1.16,0.818-1.258C914.045,30.34,914.618,30.816,914.724,31.528"/>
		<g>
			<g>
				<defs>
					<rect id="SVGID_1_" x="915.045" y="32.206" width="6.917" height="6.915"/>
				</defs>
				<clipPath id="SVGID_2_">
					<use xlink:href="#SVGID_1_"  style="overflow:visible;"/>
				</clipPath>
				<g style="clip-path:url(#SVGID_2_);">
					<defs>
						<path id="SVGID_3_" d="M921.954,35.417c0.136,1.906-1.299,3.559-3.203,3.695c-1.906,0.136-3.562-1.3-3.695-3.203
							c-0.136-1.906,1.297-3.562,3.203-3.695C920.165,32.078,921.818,33.511,921.954,35.417"/>
					</defs>
					<clipPath id="SVGID_4_">
						<use xlink:href="#SVGID_3_"  style="overflow:visible;"/>
					</clipPath>
					<defs>
						<filter id="Adobe_OpacityMaskFilter" filterUnits="userSpaceOnUse" x="914.412" y="31.57" width="8.186" height="8.186">
							<feColorMatrix  type="matrix" values="1 0 0 0 0  0 1 0 0 0  0 0 1 0 0  0 0 0 1 0"/>
						</filter>
					</defs>
					<mask maskUnits="userSpaceOnUse" x="914.412" y="31.57" width="8.186" height="8.186" id="SVGID_5_">
						<g style="filter:url(#Adobe_OpacityMaskFilter);">
							
								<radialGradient id="SVGID_6_" cx="534.844" cy="181.8198" r="2.7821" gradientTransform="matrix(1.2397 -0.0882 -0.0882 -1.2397 271.5099 308.2564)" gradientUnits="userSpaceOnUse">
								<stop  offset="0" style="stop-color:#FFFFFF"/>
								<stop  offset="1" style="stop-color:#000000"/>
							</radialGradient>
							<polygon style="clip-path:url(#SVGID_4_);fill:url(#SVGID_6_);" points="914.412,32.114 922.055,31.57 922.599,39.212 
								914.956,39.756 							"/>
						</g>
					</mask>
					
						<radialGradient id="SVGID_7_" cx="534.8441" cy="181.82" r="2.7821" gradientTransform="matrix(1.2397 -0.0882 -0.0882 -1.2397 271.5099 308.2564)" gradientUnits="userSpaceOnUse">
						<stop  offset="0" style="stop-color:#ECAA8B"/>
						<stop  offset="1" style="stop-color:#ECAA8B"/>
					</radialGradient>
					<polygon style="clip-path:url(#SVGID_4_);mask:url(#SVGID_5_);fill:url(#SVGID_7_);" points="914.412,32.114 922.055,31.57 
						922.599,39.212 914.956,39.756 					"/>
				</g>
			</g>
		</g>
		<path style="fill:#FFFFFF;" d="M912.624,25.24c-1.327,0.117-2.541,0.209-3.759,0.117c-0.442-0.036-0.877-0.111-1.288-0.289
			c-0.629-0.275-0.896-0.796-0.743-1.464c0.136-0.587,0.495-1.038,0.924-1.427c0.938-0.849,2.062-1.313,3.286-1.547
			c0.301-0.058,0.523-0.128,0.634-0.473c0.148-0.459,0.465-0.826,0.832-1.141c0.209-0.175,0.401-0.181,0.551-0.014
			c0.153,0.161,0.131,0.353-0.075,0.542c-0.189,0.178-0.359,0.373-0.49,0.598c-0.175,0.303-0.159,0.339,0.203,0.337
			c0.629-0.003,1.249,0.075,1.853,0.242c0.965,0.262,1.859,0.651,2.529,1.438c0.195,0.234,0.345,0.493,0.409,0.79
			c0.136,0.612-0.064,1.077-0.601,1.414c-0.501,0.317-1.074,0.448-1.647,0.556C914.34,25.093,913.425,25.182,912.624,25.24"/>
		<path style="fill:#040000;" d="M909.909,25.789c-0.361,0-0.717-0.012-1.076-0.039c-0.568-0.048-1.016-0.149-1.413-0.321
			c-0.802-0.352-1.163-1.067-0.97-1.912c0.136-0.592,0.467-1.11,1.043-1.633c0.921-0.833,2.057-1.37,3.475-1.641
			c0.277-0.054,0.294-0.083,0.334-0.208c0.149-0.469,0.462-0.899,0.951-1.318c0.182-0.154,0.37-0.23,0.56-0.23
			c0.141,0,0.351,0.043,0.538,0.25c0.136,0.144,0.209,0.322,0.201,0.512c-0.005,0.145-0.063,0.365-0.302,0.586
			c-0.092,0.086-0.174,0.171-0.242,0.257c0.59,0.023,1.13,0.107,1.647,0.25c0.842,0.228,1.918,0.614,2.725,1.564
			c0.258,0.31,0.418,0.624,0.495,0.961c0.171,0.77-0.098,1.403-0.777,1.83c-0.571,0.36-1.196,0.499-1.785,0.611
			c-1,0.19-1.997,0.276-2.66,0.325C911.724,25.714,910.809,25.789,909.909,25.789z M911.994,20.429
			c-0.217,0.457-0.622,0.537-0.875,0.587c-1.274,0.243-2.285,0.719-3.098,1.452c-0.448,0.409-0.704,0.798-0.804,1.224
			c-0.109,0.481,0.06,0.814,0.516,1.015c0.321,0.137,0.679,0.217,1.163,0.257c1.185,0.088,2.418-0.004,3.693-0.117
			c0.649-0.048,1.617-0.13,2.579-0.314c0.516-0.098,1.06-0.217,1.513-0.503c0.397-0.251,0.524-0.548,0.427-0.995
			c-0.046-0.212-0.155-0.414-0.329-0.624c-0.516-0.61-1.236-1.015-2.331-1.311c-0.546-0.152-1.125-0.228-1.717-0.228
			c-0.008,0-0.014,0-0.019,0c-0.236,0-0.516-0.007-0.658-0.251C912.015,20.557,911.999,20.492,911.994,20.429z"/>
	</g>
</g>
</svg>
