<svg xmlns="http://www.w3.org/2000/svg" width="31.008" height="30.992" viewBox="0 0 31.008 30.992">
  <g id="ベクトルスマートオブジェクト1" transform="translate(-288.507 -226.371)">
    <g id="Group_4" data-name="Group 4">
      <path id="Path_8" data-name="Path 8" d="M313.071,230.744H289.437l1.935,6.272,1.741,5.645h16.019" fill="none" stroke="#1a1311" stroke-linecap="round" stroke-linejoin="round" stroke-width="1.86"/>
      <path id="Path_9" data-name="Path 9" d="M318.585,227.3h-4.2l-7.09,21.452H293.749" fill="none" stroke="#1a1311" stroke-linecap="round" stroke-linejoin="round" stroke-width="1.86"/>
      <path id="Path_10" data-name="Path 10" d="M296.4,253.718A2.692,2.692,0,1,1,293.705,251,2.7,2.7,0,0,1,296.4,253.718Z" fill="#c9c9ca" stroke="#1a1311" stroke-linecap="round" stroke-linejoin="round" stroke-width="1.86"/>
      <path id="Path_11" data-name="Path 11" d="M310.708,253.718A2.692,2.692,0,1,1,308.016,251,2.7,2.7,0,0,1,310.708,253.718Z" fill="#c9c9ca" stroke="#1a1311" stroke-linecap="round" stroke-linejoin="round" stroke-width="1.86"/>
      <line id="Line_2" data-name="Line 2" x1="19.039" transform="translate(291.801 236.57)" fill="none" stroke="#1a1311" stroke-linecap="round" stroke-linejoin="round" stroke-width="1.852"/>
      <line id="Line_3" data-name="Line 3" y2="10.195" transform="translate(295.083 231.406)" fill="none" stroke="#1a1311" stroke-linecap="round" stroke-linejoin="round" stroke-width="1.868"/>
      <line id="Line_4" data-name="Line 4" y2="10.195" transform="translate(301.386 231.406)" fill="none" stroke="#1a1311" stroke-linecap="round" stroke-linejoin="round" stroke-width="1.868"/>
      <line id="Line_5" data-name="Line 5" y2="10.195" transform="translate(307.688 231.406)" fill="none" stroke="#1a1311" stroke-linecap="round" stroke-linejoin="round" stroke-width="1.868"/>
    </g>
  </g>
</svg>
