<?xml version="1.0" encoding="utf-8"?>
<!-- Generator: Adobe Illustrator 18.0.0, SVG Export Plug-In . SVG Version: 6.00 Build 0)  -->
<!DOCTYPE svg PUBLIC "-//W3C//DTD SVG 1.1//EN" "http://www.w3.org/Graphics/SVG/1.1/DTD/svg11.dtd">
<svg version="1.1" id="文字" xmlns="http://www.w3.org/2000/svg" xmlns:xlink="http://www.w3.org/1999/xlink" x="0px" y="0px"
	 width="30px" height="30px" viewBox="0 0 30 30" style="enable-background:new 0 0 30 30;" xml:space="preserve">
<g>
	<polyline style="fill:#FFFFFF;" points="22.306,7.412 3.247,7.412 4.807,12.428 6.211,16.942 19.13,16.942 	"/>
	<g>
		<circle style="fill:#D2D2D3;" cx="6.688" cy="25.783" r="2.171"/>
		<path d="M6.689,28.701c-1.609,0-2.918-1.309-2.918-2.918c0-1.609,1.309-2.918,2.918-2.918c1.609,0,2.917,1.309,2.917,2.918
			C9.606,27.392,8.297,28.701,6.689,28.701z M6.689,24.359c-0.786,0-1.425,0.639-1.425,1.424c0,0.786,0.639,1.425,1.425,1.425
			c0.785,0,1.424-0.639,1.424-1.425C8.112,24.998,7.474,24.359,6.689,24.359z"/>
	</g>
	<g>
		<circle style="fill:#D2D2D3;" cx="18.23" cy="25.783" r="2.171"/>
		<path d="M18.23,28.701c-1.609,0-2.917-1.309-2.917-2.918c0-1.609,1.309-2.918,2.917-2.918c1.609,0,2.918,1.309,2.918,2.918
			C21.147,27.392,19.839,28.701,18.23,28.701z M18.23,24.359c-0.785,0-1.424,0.639-1.424,1.424c0,0.786,0.639,1.425,1.424,1.425
			c0.785,0,1.424-0.639,1.424-1.425C19.654,24.998,19.015,24.359,18.23,24.359z"/>
	</g>
	<path d="M26.753,3.912h-3.389c-0.321,0-0.607,0.206-0.709,0.511l-0.747,2.242H3.247c-0.237,0-0.461,0.113-0.601,0.304
		C2.505,7.161,2.463,7.407,2.534,7.634l2.965,9.529c0.097,0.312,0.386,0.525,0.713,0.525h12.023l-1.126,3.378H6.724
		c-0.412,0-0.747,0.334-0.747,0.747c0,0.412,0.334,0.747,0.747,0.747h10.923c0.321,0,0.607-0.206,0.708-0.511l5.548-16.644h2.85
		c0.412,0,0.747-0.334,0.747-0.747C27.5,4.246,27.166,3.912,26.753,3.912z M8.546,12.818h3.59v3.276c0,0.034,0.006,0.067,0.01,0.101
		h-3.61c0.005-0.033,0.01-0.066,0.01-0.101V12.818z M8.546,11.324V8.159h3.59v3.166H8.546z M13.629,16.094v-3.276h3.589v3.276
		c0,0.034,0.006,0.067,0.01,0.101h-3.61C13.624,16.162,13.629,16.129,13.629,16.094z M13.629,11.324V8.159h3.589v3.166H13.629z
		 M7.053,8.159v3.166H5.246L4.261,8.159H7.053z M5.71,12.818h1.342v3.276c0,0.034,0.006,0.067,0.01,0.101H6.761L5.71,12.818z
		 M18.702,16.195c0.005-0.033,0.01-0.066,0.01-0.101v-3.276h1.146l-1.126,3.377H18.702z M20.356,11.324h-1.644V8.159h2.699
		L20.356,11.324z"/>
</g>
</svg>
