<?xml version="1.0" encoding="utf-8"?>
<!-- Generator: Adobe Illustrator 18.0.0, SVG Export Plug-In . SVG Version: 6.00 Build 0)  -->
<!DOCTYPE svg PUBLIC "-//W3C//DTD SVG 1.1//EN" "http://www.w3.org/Graphics/SVG/1.1/DTD/svg11.dtd">
<svg version="1.1" id="レイヤー_1" xmlns="http://www.w3.org/2000/svg" xmlns:xlink="http://www.w3.org/1999/xlink" x="0px"
	 y="0px" width="25px" height="25px" viewBox="0 0 25 25" enable-background="new 0 0 25 25" xml:space="preserve">
<g>
	<path fill="#FFFFFF" d="M17.1,14.1c-0.3-0.3-0.7-0.3-1,0l-0.5,0.5l-1.3-1.3c1-1.2,1.7-2.9,1.7-4.6c0-4-3.2-7.2-7.2-7.2
		S1.5,4.7,1.5,8.7s3.2,7.2,7.2,7.2c1.7,0,3.3-0.6,4.6-1.7l1.3,1.3l-0.5,0.5c-0.3,0.3-0.3,0.7,0,1l6.2,6.2c0.1,0.1,0.3,0.2,0.5,0.2
		s0.4-0.1,0.5-0.2l2.1-2.1c0.3-0.3,0.3-0.7,0-1L17.1,14.1z M2.9,8.7c0-3.2,2.6-5.8,5.8-5.8s5.8,2.6,5.8,5.8s-2.6,5.8-5.8,5.8
		S2.9,11.9,2.9,8.7z M20.8,21.8l-5.2-5.2l1.1-1.1l5.2,5.2L20.8,21.8z"/>
</g>
</svg>
